<svg xmlns="http://www.w3.org/2000/svg" width="49" height="40" fill="none"><path fill="#5F3918" d="M20.08.012a.236.236 0 0 0-.147.12C19.926.145 18.7 3.668 17.21 7.96c-2.522 7.26-2.71 7.805-2.713 7.838a.21.21 0 0 0 .024.12c.029.056.084.1.146.116.024.006.396.007 3.508.007 3.153 0 3.484 0 3.508-.007a.278.278 0 0 0 .05-.018.264.264 0 0 0 .091-.09c.008-.016.2-.57.426-1.235l.426-1.247.014-.039h2.368l2.368.002.427 1.25c.234.686.43 1.257.436 1.268a.25.25 0 0 0 .143.11c.021.005.48.006 3.341.006 2.965 0 3.32-.001 3.344-.007a.23.23 0 0 0 .165-.167.24.24 0 0 0-.024-.169 1.835 1.835 0 0 1-.114-.372 2.146 2.146 0 0 0-.115-.396c-.132-.315-.305-.483-.552-.537a.554.554 0 0 0-.141-.01.672.672 0 0 0-.152.01 1.36 1.36 0 0 0-.294.09c-.253.122-.397.366-.423.72-.002.039-.006.078-.007.088l-.002.02-.04-.027c-.201-.135-.321-.322-.391-.608a4.432 4.432 0 0 1-.096-.672c-.03-.312-.069-.477-.157-.652a.729.729 0 0 0-.155-.217.688.688 0 0 0-.462-.207 1.173 1.173 0 0 0-.368.039c-.213.067-.372.27-.492.627a1.353 1.353 0 0 1-.023.064.986.986 0 0 1-.095-.157.995.995 0 0 1-.08-.218 1.111 1.111 0 0 1-.038-.348c0-.118.002-.165.008-.216.017-.14.039-.258.096-.518a1.64 1.64 0 0 0 .058-.409c0-.552-.397-.905-.93-.829a.798.798 0 0 0-.486.242c-.054.057-.09.108-.159.219-.008.014-.047-.13-.064-.24a1.672 1.672 0 0 1-.002-.355c.026-.195.084-.387.183-.608.015-.035.068-.144.117-.242a1.5 1.5 0 0 0 .135-.32.978.978 0 0 0-.014-.555 1.156 1.156 0 0 0-.114-.227 1.077 1.077 0 0 0-.188-.188.888.888 0 0 0-.206-.103c-.134-.038-.259-.022-.415.055-.098.048-.19.11-.337.23-.062.05-.08.062-.081.056a1.651 1.651 0 0 1-.039-.457c.022-.23.111-.417.3-.626.019-.022.083-.09.142-.152.196-.206.268-.298.357-.456a.998.998 0 0 0 .15-.496.657.657 0 0 0-.205-.485.942.942 0 0 0-.266-.19.628.628 0 0 0-.278-.034 1.852 1.852 0 0 0-.508.131.718.718 0 0 1-.087.028c-.004-.004.011-.12.022-.172.062-.306.232-.563.52-.786.104-.082.235-.165.439-.278a1.06 1.06 0 0 0 .284-.197.888.888 0 0 0 .113-1.141.823.823 0 0 0-.175-.18c-.177-.118-.4-.147-.725-.096l-.08.014c-.011.004-.01-.004.014-.058.1-.233.316-.427.669-.603a4.81 4.81 0 0 1 .603-.247 1.85 1.85 0 0 0 .371-.158.711.711 0 0 0 .358-.481.653.653 0 0 0 .01-.16c0-.071-.002-.126-.005-.146a5.074 5.074 0 0 0-.128-.376.596.596 0 0 0-.177-.172 1.182 1.182 0 0 0-.536-.155 4.298 4.298 0 0 1-.063-.005l-.028-.002.028-.036c.037-.049.12-.132.172-.174.048-.037.125-.089.166-.11a.233.233 0 0 0 .127-.224.397.397 0 0 0-.048-.142.239.239 0 0 0-.136-.095C30 .005 29.419.004 25.05.005c-4.3 0-4.95 0-4.97.007Zm9.31.45a.424.424 0 0 1-.032.046 1.715 1.715 0 0 0-.242.456.228.228 0 0 0 .163.272c.02.005.07.008.247.01.227.005.27.007.367.023a.57.57 0 0 1 .167.05c.057.027.054.023.098.148l.04.111.002.057c.003.096-.016.148-.074.206-.056.055-.13.092-.309.155-.289.103-.419.153-.56.217-.323.145-.56.3-.746.487a1.259 1.259 0 0 0-.383.776.852.852 0 0 0 0 .216.228.228 0 0 0 .163.166c.05.014.092.009.322-.036.204-.04.266-.048.367-.048.071 0 .093.001.116.008a.22.22 0 0 1 .143.106.435.435 0 0 1-.123.594c-.014.01-.082.049-.149.086-.244.136-.385.23-.539.356-.067.056-.22.208-.269.268a1.67 1.67 0 0 0-.365.785 2.002 2.002 0 0 0-.01.557c.006.04.01.055.025.085a.225.225 0 0 0 .232.126c.036-.005.11-.03.267-.091.329-.128.46-.167.57-.169h.048l.04.027a.465.465 0 0 1 .128.129c.02.038.026.067.023.117-.005.092-.054.206-.146.344a2.102 2.102 0 0 1-.262.304c-.222.231-.321.363-.408.543-.066.136-.102.26-.125.421-.012.08-.011.324 0 .412.025.191.072.387.137.574.032.09.058.128.115.162.067.04.164.039.234-.004.04-.024.153-.111.258-.197.143-.118.218-.175.286-.22.102-.07.144-.083.184-.063.051.026.1.07.133.117a.5.5 0 0 1 .043.429 2.47 2.47 0 0 1-.096.206 4.46 4.46 0 0 0-.175.38c-.095.237-.15.454-.17.671-.01.097-.007.307.004.387.04.283.132.525.294.768.06.09.098.123.163.142a.3.3 0 0 0 .116.003.232.232 0 0 0 .104-.06c.035-.035.063-.082.155-.263.078-.151.092-.177.129-.232a.35.35 0 0 1 .231-.16.715.715 0 0 1 .218 0c.182.05.263.238.217.506-.004.03-.023.118-.04.194l-.048.23c-.082.417-.086.745-.011 1.04.066.263.193.497.377.694.097.103.211.202.264.227.086.04.18.025.252-.042.044-.042.052-.061.088-.204.086-.339.153-.518.232-.616.034-.041.049-.049.112-.059.069-.01.144-.01.19-.001.11.023.186.107.239.271.035.105.049.19.069.407.015.166.032.314.045.406.077.526.22.835.507 1.087l.029.026h-4.408l-.422-1.24c-.233-.68-.43-1.252-.438-1.27a.227.227 0 0 0-.15-.12c-.025-.005-.31-.006-2.596-.005l-2.57.001-.026.01a.243.243 0 0 0-.128.114c-.006.012-.202.582-.435 1.265l-.425 1.243h-6.418L17.67 8.03A46667.2 46667.2 0 0 0 20.297.466c.002-.007.222-.007 4.548-.007 2.5 0 4.545.001 4.545.003Zm5.002 14.38c.054.014.098.05.141.115.032.048.049.08.079.154.028.07.047.137.08.284a14.486 14.486 0 0 0 .045.19c0 .001-.183.003-.407.003-.366 0-.407-.001-.41-.007a4.381 4.381 0 0 1 .002-.347c.017-.182.066-.284.159-.332a.841.841 0 0 1 .171-.058.338.338 0 0 1 .14-.002Z"/><path fill="#5F3918" d="M25.01 5.411a.32.32 0 0 0-.052.019.262.262 0 0 0-.1.097c-.021.041-1.3 3.921-1.303 3.955a.232.232 0 0 0 .122.224c.057.029-.037.027 1.383.027 1.14 0 1.3-.001 1.324-.007a.228.228 0 0 0 .177-.234c-.001-.03-.075-.256-.646-1.988-.358-1.087-.65-1.966-.658-1.98a.246.246 0 0 0-.08-.085.237.237 0 0 0-.166-.028Zm.562 2.508.446 1.353-.957.001-.96-.001c-.002-.002.94-2.864.953-2.896.005-.01.009 0 .038.089l.48 1.454ZM38.669 4.655a1.58 1.58 0 0 0-1.338 2.07c.08.242.205.442.387.624.134.134.254.22.421.302.287.142.601.192.92.147a1.585 1.585 0 0 0-.057-3.143 2.177 2.177 0 0 0-.333 0Zm.33.459a1.16 1.16 0 0 1 .638.325 1.123 1.123 0 0 1 .245 1.212 1.144 1.144 0 0 1-.585.609c-.24.106-.514.127-.764.057a1.135 1.135 0 0 1-.757-.698 1.157 1.157 0 0 1-.042-.633 1.126 1.126 0 0 1 .962-.874l.057-.007c.035-.004.2.002.245.009ZM39.655 24.244c-.937.048-1.697.434-2.271 1.157-.406.51-.663 1.148-.754 1.872-.033.257-.038.36-.038.701 0 .302.002.354.02.572.091 1.08.457 1.87 1.088 2.344.125.094.228.157.381.234.38.19.814.294 1.347.323.187.01.487.005.674-.012.707-.063 1.28-.302 1.699-.71.348-.338.535-.733.593-1.25a4.46 4.46 0 0 0-.012-.718 46.455 46.455 0 0 0-.857-.22 1.52 1.52 0 0 0 .013.122c.035.26.043.35.046.513.002.146-.002.232-.017.348a1.695 1.695 0 0 1-.478.999 1.231 1.231 0 0 1-.742.368 1.65 1.65 0 0 1-.169.006 1.06 1.06 0 0 1-.285-.027c-.644-.143-1.023-.796-1.14-1.961a7.264 7.264 0 0 1-.033-.87c0-.382.003-.486.018-.747.084-1.43.415-2.245.993-2.444a.974.974 0 0 1 .386-.045c.418.024.706.175.9.47.133.204.208.463.24.826.007.088.007.409-.001.58a2.51 2.51 0 0 0-.004.139l.434-.197.433-.198v-.048c0-.057-.007-.202-.013-.271a2.346 2.346 0 0 0-.232-.875 1.529 1.529 0 0 0-.302-.42c-.315-.315-.766-.499-1.354-.55a4.6 4.6 0 0 0-.563-.011ZM2.068 24.355l-2.062 6.97-.002.01h.792l.222-.756.222-.757H3.342l.006.014.205.75.203.742c.002.007.055.008 1.02.008.614 0 1.017-.002 1.017-.004l-.971-3.49-.97-3.49c0-.001-.401-.002-.891-.002-.709 0-.891.001-.893.005Zm.672 3.207.41 1.544.003.012h-.855c-.47 0-.855 0-.855-.003a4745.566 4745.566 0 0 1 .888-3.086l.409 1.533ZM7.128 27.843v3.493h4.898v-.7H9.154V24.35H7.128v3.493ZM13.241 27.843v3.493h4.898v-.7h-2.872V24.35h-2.026v3.493ZM19.359 27.843v3.493h2.026V24.35h-2.026v3.493ZM24.775 24.355c-.006.016-2.063 6.973-2.063 6.977 0 .002.163.004.395.004h.395l.222-.757.223-.757h1.052c.997 0 1.051 0 1.053.008l.201.733.206.75.006.023h1.017c.56 0 1.018-.002 1.018-.003l-.972-3.493-.971-3.49h-.89c-.708 0-.89.001-.892.005Zm.68 3.235.404 1.526c0 .002-.384.002-.855.002-.47 0-.854-.001-.854-.004s.876-3.055.884-3.079c.003-.007.004-.005.009.011l.411 1.544ZM29.795 27.843v3.493h.681l.001-2.207.002-2.207 1.456 2.207 1.456 2.207H34.942V24.35h-.681v4.775l-1.592-2.388-1.591-2.387h-1.282v3.493ZM43.954 27.843v3.493h4.955v-.7h-2.93v-2.769h2.107l-.001-.35-.002-.35-1.051-.002-1.052-.001V25.053h2.502v-.703h-4.528v3.493ZM8.644 34.083a2.27 2.27 0 0 0-.85.222 2.224 2.224 0 0 0-1 1.009 2.393 2.393 0 0 0-.221.817 5.17 5.17 0 0 0-.002.539c.051.567.24 1.006.584 1.36.334.342.731.528 1.251.584.09.009.336.013.448.006a2.916 2.916 0 0 0 1.225-.335l.059-.032v-1.998H8.66v.468h.966v1.233l-.023.014a1.853 1.853 0 0 1-.218.092c-.34.117-.774.134-1.133.045a1.435 1.435 0 0 1-.894-.665 1.945 1.945 0 0 1-.252-.868 4.388 4.388 0 0 1 0-.39c.038-.49.21-.882.526-1.191a1.54 1.54 0 0 1 .943-.44c.138-.017.362-.013.535.006a2.237 2.237 0 0 1 .938.316l.001-.284v-.284l-.023-.01a2.583 2.583 0 0 0-.859-.208 6.268 6.268 0 0 0-.523-.006ZM40.957 34.083a2.149 2.149 0 0 0-1.142.407 2.355 2.355 0 0 0-.448.441c-.244.321-.39.703-.44 1.149-.015.137-.02.238-.017.41.004.206.017.338.05.507.079.394.238.718.492 1.001.336.375.788.584 1.344.622.088.006.295.006.394 0 .376-.023.677-.095.953-.227l.048-.023v-.249c0-.137-.001-.25-.002-.25l-.036.02c-.216.129-.502.22-.79.254-.161.02-.382.024-.508.01-.389-.041-.684-.18-.938-.44-.262-.268-.41-.605-.458-1.045a4.107 4.107 0 0 1-.007-.448c.03-.442.157-.795.394-1.09.045-.057.143-.157.2-.207.297-.255.666-.384 1.104-.384.353 0 .702.083.99.237l.05.026v-.547l-.02-.01a2.313 2.313 0 0 0-.183-.064 2.65 2.65 0 0 0-.513-.094 6.29 6.29 0 0 0-.517-.006ZM31.594 36.351v2.202h2.28v-.467h-1.768V34.15h-.512v2.201ZM35.494 36.351v2.202h2.284v-.467h-1.767V34.15h-.517v2.201ZM16.394 35.337c-.522.017-.932.215-1.208.583a1.59 1.59 0 0 0-.286.718 2.46 2.46 0 0 0 .007.777c.058.316.195.584.407.797.246.246.546.377.938.408.082.007.302.003.378-.007a1.54 1.54 0 0 0 .536-.157c.125-.064.233-.143.339-.248.308-.306.46-.718.46-1.242 0-.452-.106-.824-.313-1.1-.221-.293-.526-.463-.92-.514a2.797 2.797 0 0 0-.274-.017l-.064.002Zm.213.431a.963.963 0 0 1 .419.157c.055.039.158.142.197.197.155.22.227.492.227.864 0 .143-.007.234-.026.347-.062.367-.237.633-.503.765a.983.983 0 0 1-.41.103 1.06 1.06 0 0 1-.647-.155c-.25-.163-.411-.438-.46-.786a2.274 2.274 0 0 1-.012-.429c.016-.199.06-.372.133-.52a.943.943 0 0 1 .802-.55c.059-.005.219-.001.28.007ZM25.728 35.338a1.177 1.177 0 0 0-.681.253c-.098.079-.198.19-.275.309a.335.335 0 0 1-.047.062c-.005 0-.006-.052-.006-.276v-.276h-.503V40h.504v-.95c0-.82 0-.951.006-.951.003 0 .02.02.036.043.049.071.094.125.153.184a.996.996 0 0 0 .735.297c.51.011.901-.19 1.168-.6.151-.234.238-.5.277-.85.01-.087.014-.376.007-.474-.029-.387-.138-.696-.333-.939a1.096 1.096 0 0 0-.685-.402 1.654 1.654 0 0 0-.356-.02Zm.06.424a.796.796 0 0 1 .618.369c.103.155.166.362.184.612.006.089.003.29-.007.385-.023.227-.07.404-.151.563a.955.955 0 0 1-.201.279.824.824 0 0 1-.548.231.945.945 0 0 1-.36-.043.907.907 0 0 1-.584-.68c-.019-.096-.02-.143-.019-.474.002-.293.003-.313.012-.372.02-.13.053-.237.103-.339a.947.947 0 0 1 .433-.445c.149-.072.339-.103.52-.086ZM13.281 35.36a1.021 1.021 0 0 0-.16.04c-.244.09-.443.311-.548.606-.01.03-.019.047-.024.048-.006.002-.007-.026-.007-.321v-.323h-.503v3.143h.503v-.85c0-.935 0-.953.03-1.114.059-.326.226-.59.446-.704a.532.532 0 0 1 .288-.067.639.639 0 0 1 .37.095v-.518l-.027-.009a.732.732 0 0 0-.236-.028l-.132.001ZM19.65 36.444c0 1.11 0 1.063.023 1.215.096.644.46.965 1.093.965.13 0 .212-.01.324-.038a1.01 1.01 0 0 0 .624-.486.164.164 0 0 1 .034-.046c.005 0 .006.037.006.25v.249h.503V35.41h-.502l-.002.969c-.001.887-.002.974-.009 1.02-.03.199-.088.349-.19.485-.04.053-.127.14-.178.176a.78.78 0 0 1-.342.135c-.065.01-.192.01-.26 0a.628.628 0 0 1-.515-.373 1.213 1.213 0 0 1-.102-.38c-.006-.052-.007-.154-.009-1.045l-.002-.987h-.499l.003 1.034Z"/></svg>