<svg xmlns="http://www.w3.org/2000/svg" width="98" height="80" fill="none"><g fill="#fff" clip-path="url(#a)"><path d="M40.161.023a.473.473 0 0 0-.296.24c-.013.029-2.463 7.075-5.444 15.658-5.043 14.521-5.42 15.611-5.425 15.677a.42.42 0 0 0 .049.238.465.465 0 0 0 .292.234c.047.012.791.014 7.015.014 6.305 0 6.968-.001 7.017-.015a.562.562 0 0 0 .099-.036.529.529 0 0 0 .182-.181c.016-.03.399-1.14.852-2.468l.851-2.495.028-.077 4.737.002 4.737.002.852 2.498c.47 1.374.862 2.516.874 2.538a.504.504 0 0 0 .285.218c.042.012.96.014 6.682.014 5.93 0 6.64-.002 6.688-.014a.461.461 0 0 0 .33-.335.48.48 0 0 0-.048-.337c-.084-.184-.148-.392-.229-.745-.094-.419-.143-.586-.228-.791-.264-.63-.61-.967-1.106-1.075a1.114 1.114 0 0 0-.282-.02c-.163 0-.207.003-.303.02a2.718 2.718 0 0 0-.587.183c-.508.242-.795.73-.846 1.44l-.014.175-.005.038-.08-.053c-.403-.271-.642-.643-.783-1.216-.08-.325-.13-.676-.191-1.344-.058-.624-.137-.954-.314-1.305a1.453 1.453 0 0 0-.31-.433c-.256-.256-.534-.38-.925-.415a2.345 2.345 0 0 0-.735.079c-.426.134-.744.538-.984 1.254a2.4 2.4 0 0 1-.046.129c-.007.009-.136-.205-.19-.316a1.993 1.993 0 0 1-.16-.436c-.065-.25-.075-.35-.076-.695 0-.236.003-.33.016-.431.035-.283.077-.517.192-1.038.097-.444.117-.58.117-.816 0-1.105-.794-1.812-1.861-1.658-.4.056-.723.218-.973.483-.107.114-.18.216-.317.437-.017.028-.093-.26-.127-.48a3.357 3.357 0 0 1-.005-.709c.051-.39.167-.774.366-1.217.03-.07.136-.287.234-.483.182-.369.226-.472.27-.64.098-.384.089-.756-.027-1.11a2.312 2.312 0 0 0-.229-.454 2.16 2.16 0 0 0-.377-.377 1.776 1.776 0 0 0-.411-.206c-.269-.076-.517-.043-.83.11-.196.097-.378.22-.675.46-.124.101-.158.125-.162.113a5.18 5.18 0 0 1-.063-.354 3.313 3.313 0 0 1-.014-.561c.044-.46.223-.833.599-1.252.038-.044.166-.18.285-.304.392-.411.536-.595.715-.91.204-.36.3-.677.3-.993.002-.375-.133-.69-.411-.971-.157-.158-.391-.323-.533-.378a1.255 1.255 0 0 0-.556-.07c-.288.025-.57.097-1.016.263a1.43 1.43 0 0 1-.172.057c-.008-.008.021-.24.042-.346.126-.61.466-1.125 1.04-1.572a6.6 6.6 0 0 1 .878-.554c.325-.181.417-.245.57-.396.45-.446.635-1.082.491-1.675a2.041 2.041 0 0 0-.266-.607 1.642 1.642 0 0 0-.35-.36c-.354-.235-.8-.293-1.45-.19-.08.012-.15.025-.158.027-.025.008-.02-.009.026-.116.202-.466.632-.853 1.338-1.207.34-.17.632-.29 1.206-.494.441-.157.567-.21.742-.314.396-.236.625-.545.716-.964.018-.083.02-.118.02-.32 0-.142-.004-.252-.01-.29a10.146 10.146 0 0 0-.257-.752c-.048-.095-.207-.25-.354-.346-.253-.165-.645-.278-1.07-.309a8.951 8.951 0 0 1-.128-.01l-.055-.005.055-.072c.075-.096.24-.264.346-.346.094-.076.248-.179.332-.223a.466.466 0 0 0 .253-.446.796.796 0 0 0-.095-.283.478.478 0 0 0-.274-.19C60.002.01 58.837.008 50.102.01c-8.6 0-9.899.001-9.94.013Zm18.62.901a.857.857 0 0 1-.064.09 3.415 3.415 0 0 0-.485.914.456.456 0 0 0 .326.544c.039.01.14.015.494.021.455.008.54.013.733.046.145.024.247.053.335.097.114.057.108.048.196.298l.078.223.005.113c.007.191-.03.296-.147.411-.111.11-.26.185-.617.312-.579.204-.838.304-1.122.433-.644.29-1.12.601-1.492.975-.45.45-.703.964-.765 1.552a1.705 1.705 0 0 0 0 .431c.042.164.165.29.325.332.102.027.186.018.645-.072.407-.08.533-.097.735-.097.141 0 .184.003.231.016a.44.44 0 0 1 .285.213.87.87 0 0 1 .064.812c-.064.14-.194.298-.309.376-.029.02-.163.097-.298.172-.489.272-.77.459-1.077.712-.134.11-.441.416-.538.536-.393.483-.63.994-.731 1.57a4 4 0 0 0-.018 1.114c.01.08.019.11.049.17a.45.45 0 0 0 .463.252c.071-.01.219-.06.535-.183.656-.255.92-.333 1.14-.337h.095l.079.053a.93.93 0 0 1 .258.258.39.39 0 0 1 .045.235c-.01.185-.108.412-.292.687-.117.174-.21.282-.524.61-.444.461-.642.726-.815 1.084-.132.274-.206.521-.251.844a5 5 0 0 0 0 .823c.05.382.143.773.274 1.148.063.18.117.255.23.323a.47.47 0 0 0 .468-.008c.079-.048.306-.221.517-.394a7.45 7.45 0 0 1 .57-.44c.205-.138.29-.166.37-.126.102.052.2.14.265.235.154.225.186.553.086.857a4.92 4.92 0 0 1-.192.413 8.92 8.92 0 0 0-.35.76 4.81 4.81 0 0 0-.34 1.342c-.019.193-.014.613.008.775.079.564.264 1.049.588 1.536.12.18.195.245.325.284a.6.6 0 0 0 .232.004.466.466 0 0 0 .21-.12c.068-.069.125-.164.31-.524.154-.303.183-.356.257-.465a.7.7 0 0 1 .462-.32c.106-.023.353-.023.435 0 .366.101.527.476.436 1.012-.01.061-.046.235-.08.388-.033.152-.077.36-.096.461-.166.834-.173 1.488-.024 2.08.133.526.387.993.756 1.387.193.206.422.404.527.454.172.08.361.05.504-.084.088-.084.105-.123.177-.409.17-.677.305-1.034.463-1.23.068-.084.097-.1.224-.119.138-.02.289-.021.38-.002.221.045.371.214.478.542.07.21.098.38.138.815.03.331.063.628.09.81.153 1.053.44 1.67 1.014 2.175l.058.051h-8.817l-.844-2.478a250.465 250.465 0 0 0-.874-2.54.454.454 0 0 0-.302-.24c-.048-.012-.617-.013-5.191-.012l-5.139.003-.052.02a.486.486 0 0 0-.257.227 303.72 303.72 0 0 0-.87 2.53c-.465 1.366-.848 2.486-.849 2.488h-6.42l-6.416-.002 5.248-15.111L40.593.931c.004-.014.445-.015 9.096-.015 5 0 9.091.004 9.091.007Zm10.003 28.76c.107.028.195.1.283.23.064.096.097.162.157.308.056.141.094.274.16.567a29.898 29.898 0 0 0 .09.38c0 .003-.365.006-.813.006-.734 0-.814-.002-.82-.014a8.712 8.712 0 0 1 .004-.694c.034-.363.131-.568.316-.664.072-.037.233-.092.343-.115a.679.679 0 0 1 .28-.003Z"/><path d="M50.021 10.823a.642.642 0 0 0-.106.036.525.525 0 0 0-.2.194 853.05 853.05 0 0 0-2.605 7.91.464.464 0 0 0 .244.45c.114.056-.074.053 2.766.053 2.279 0 2.599-.002 2.649-.014a.457.457 0 0 0 .354-.469c-.004-.06-.15-.51-1.293-3.976a447.43 447.43 0 0 0-1.316-3.959.492.492 0 0 0-.161-.17.474.474 0 0 0-.332-.055Zm1.122 5.014.893 2.707-1.914.003c-1.053 0-1.917 0-1.919-.003-.004-.003 1.88-5.728 1.906-5.792.008-.02.017 0 .075.178l.96 2.907ZM77.338 9.31a3.16 3.16 0 0 0-2.205 1.256c-.29.385-.495.857-.582 1.335-.061.346-.06.781.005 1.136.02.111.07.302.106.414.16.482.41.884.773 1.246.27.27.509.44.844.606a3.124 3.124 0 0 0 1.838.293 3.17 3.17 0 0 0 2.52-4.251 4.193 4.193 0 0 0-.278-.564 3.183 3.183 0 0 0-2.357-1.471 4.353 4.353 0 0 0-.664 0Zm.659.917c.4.062.778.228 1.095.482.042.034.124.109.182.168a2.246 2.246 0 0 1 .49 2.426c-.215.533-.65.986-1.17 1.216a2.273 2.273 0 0 1-1.528.114 2.271 2.271 0 0 1-1.289-.946 2.82 2.82 0 0 1-.225-.45 2.313 2.313 0 0 1-.085-1.264 2.254 2.254 0 0 1 1.923-1.749l.117-.014c.07-.008.4.004.49.017ZM79.31 48.487c-1.875.096-3.394.87-4.542 2.315-.813 1.021-1.326 2.297-1.509 3.744-.064.514-.076.72-.076 1.403 0 .602.004.708.04 1.144.183 2.16.916 3.739 2.177 4.687.25.188.457.315.762.468.76.38 1.628.588 2.694.646.374.022.975.01 1.349-.023 1.412-.126 2.56-.605 3.396-1.42.696-.677 1.07-1.466 1.186-2.502.019-.173.027-.675.013-.944-.014-.296-.028-.484-.037-.49a94.335 94.335 0 0 0-1.714-.443c-.003.004.01.113.027.245.07.52.085.702.091 1.028.006.291-.002.464-.033.696-.106.792-.43 1.47-.957 1.997a2.463 2.463 0 0 1-1.482.736 3.332 3.332 0 0 1-.339.012 2.12 2.12 0 0 1-.57-.055c-1.288-.285-2.047-1.591-2.278-3.921-.056-.56-.068-.866-.068-1.741 0-.763.005-.97.035-1.492.169-2.862.831-4.491 1.986-4.889.232-.079.473-.107.774-.09.835.048 1.412.35 1.798.94.266.409.417.925.48 1.653.015.174.015.816-.001 1.16-.007.15-.01.275-.009.277.002.002.394-.175.87-.394l.866-.397v-.094c0-.115-.015-.404-.027-.543-.062-.693-.21-1.25-.463-1.75a3.058 3.058 0 0 0-.606-.842c-.628-.628-1.531-.995-2.707-1.1a9.178 9.178 0 0 0-1.126-.02ZM4.136 48.71C4.13 48.734.016 62.632.012 62.65l-.005.021h1.584l.445-1.513.444-1.514h4.206l.01.028c.004.016.19.69.41 1.499.22.808.403 1.476.406 1.484.004.015.11.016 2.04.016 1.227 0 2.033-.003 2.033-.008 0-.004-.874-3.146-1.941-6.98-1.068-3.836-1.941-6.976-1.941-6.979 0-.002-.802-.004-1.781-.004-1.418 0-1.782.003-1.786.01Zm1.344 6.415.82 3.087.006.025h-1.71c-.942 0-1.71-.003-1.71-.006 0-.004 1.709-5.956 1.768-6.159.002-.009.006-.015.008-.013.001.002.37 1.38.818 3.066ZM14.257 55.686v6.985h9.795v-1.398h-5.744V48.7h-4.051v6.986ZM26.483 55.686v6.985h9.795v-1.398h-5.744V48.7h-4.051v6.986ZM38.718 55.686v6.985h4.051V48.7h-4.051v6.986ZM49.55 48.71c-.011.032-4.127 13.946-4.127 13.953 0 .005.327.008.79.008h.791l.445-1.513.445-1.514h2.103c1.995 0 2.104 0 2.108.015l.402 1.467c.218.798.402 1.473.41 1.498l.014.047h2.033c1.12 0 2.035-.002 2.035-.006 0-.003-.874-3.147-1.943-6.986l-1.943-6.98h-1.78c-1.415 0-1.78.004-1.783.012Zm1.358 6.47.81 3.052c0 .003-.769.005-1.71.005-.94 0-1.709-.004-1.709-.008 0-.006 1.754-6.11 1.77-6.159.004-.014.008-.01.017.023l.822 3.087ZM59.59 55.686v6.985h1.362l.003-4.414.002-4.414 2.912 4.414 2.912 4.414H69.884V48.7h-1.362v9.55l-3.184-4.775-3.183-4.775H59.59v6.986ZM87.907 55.686v6.985H97.818v-1.398H91.96v-5.539h4.212l-.002-.701-.002-.7-2.104-.004-2.104-.001v-4.221h5.004V48.7h-9.056v6.986ZM17.288 68.166c-.654.053-1.18.191-1.7.445a4.448 4.448 0 0 0-2 2.017c-.237.49-.376 1.006-.442 1.634-.02.188-.022.878-.004 1.077.102 1.135.48 2.013 1.168 2.72.668.685 1.462 1.057 2.502 1.168.18.019.672.027.895.013.902-.053 1.712-.274 2.451-.67l.118-.063V72.51H17.32v.935h1.932v2.467l-.046.026a3.723 3.723 0 0 1-.436.186c-.678.234-1.548.268-2.265.089a2.87 2.87 0 0 1-1.79-1.33c-.283-.468-.453-1.056-.503-1.736a8.821 8.821 0 0 1 0-.78c.076-.981.421-1.764 1.052-2.382.521-.51 1.13-.794 1.887-.88a5.431 5.431 0 0 1 1.07.012 4.473 4.473 0 0 1 1.874.633c.001 0 .003-.256.003-.568v-.569l-.046-.02c-.54-.235-1.026-.353-1.717-.416a12.58 12.58 0 0 0-1.047-.011ZM81.915 68.165c-.884.068-1.63.334-2.285.814a4.705 4.705 0 0 0-.896.884c-.487.642-.78 1.404-.88 2.296-.03.275-.038.476-.033.82.006.412.032.676.1 1.015.156.789.474 1.435.983 2.002.672.75 1.576 1.168 2.688 1.243a9 9 0 0 0 .788 0c.752-.045 1.354-.188 1.906-.453l.095-.045v-.499c0-.274-.002-.499-.003-.499a.897.897 0 0 0-.073.04c-.431.256-1.003.44-1.58.507a5.32 5.32 0 0 1-1.015.02c-.778-.083-1.368-.36-1.876-.88-.523-.535-.819-1.21-.917-2.09a8.264 8.264 0 0 1-.013-.897c.06-.884.315-1.59.788-2.18.09-.113.286-.314.402-.414.592-.51 1.33-.766 2.205-.766a4.27 4.27 0 0 1 1.982.472l.1.054V68.514l-.042-.02a4.57 4.57 0 0 0-.364-.128 5.296 5.296 0 0 0-1.027-.188 12.54 12.54 0 0 0-1.033-.013ZM63.188 72.703v4.403h4.56v-.935H64.211v-7.872h-1.024v4.404ZM70.988 72.703v4.403h4.569v-.935H72.02v-7.872h-1.033v4.404ZM32.787 70.674c-1.043.035-1.864.43-2.415 1.167-.293.392-.484.871-.572 1.435a4.915 4.915 0 0 0 .014 1.555c.116.631.39 1.167.815 1.593.49.492 1.091.754 1.874.816.164.014.605.006.756-.014.42-.051.746-.148 1.072-.313.251-.13.468-.287.679-.497.616-.613.92-1.436.92-2.484 0-.904-.212-1.649-.626-2.2-.442-.586-1.053-.927-1.842-1.028a5.564 5.564 0 0 0-.546-.034l-.129.004Zm.428.862c.315.044.611.154.837.314.11.077.316.284.393.394.311.44.454.985.454 1.728 0 .285-.013.469-.051.694-.124.735-.473 1.266-1.006 1.53-.253.127-.49.187-.819.207-.491.029-.94-.079-1.296-.31-.5-.327-.821-.877-.92-1.574a4.557 4.557 0 0 1-.022-.856c.032-.398.12-.745.265-1.04.321-.658.866-1.03 1.604-1.1.117-.01.438-.004.56.013ZM51.456 70.677c-.53.033-.989.203-1.363.505a2.772 2.772 0 0 0-.549.618.677.677 0 0 1-.093.123c-.01 0-.012-.102-.012-.552v-.552h-1.006V80h1.006v-1.901c0-1.639.002-1.901.013-1.901.007 0 .04.039.073.086.096.142.187.25.305.368.323.321.693.504 1.163.575.05.008.183.016.307.019 1.02.022 1.802-.38 2.336-1.2.303-.467.477-1.002.555-1.7.02-.175.027-.752.013-.947-.057-.775-.276-1.394-.665-1.879a2.193 2.193 0 0 0-1.37-.803 3.303 3.303 0 0 0-.713-.04Zm.12.847c.526.048.937.293 1.235.738.208.31.332.724.369 1.224.012.177.005.58-.014.77-.047.455-.141.807-.302 1.127-.12.235-.233.393-.403.556-.296.286-.643.433-1.094.464a1.893 1.893 0 0 1-.721-.087c-.577-.188-1.04-.727-1.167-1.359-.038-.192-.042-.286-.038-.95.003-.585.005-.626.024-.743a2.32 2.32 0 0 1 .205-.677c.197-.403.501-.715.866-.89a2.032 2.032 0 0 1 1.04-.173ZM26.563 70.719c-.076.01-.243.051-.32.08-.489.181-.888.623-1.097 1.213-.021.061-.037.095-.047.097-.014.002-.014-.054-.014-.643v-.647H24.078v6.287H25.085v-1.7c0-1.87 0-1.906.058-2.227.118-.654.454-1.183.893-1.41.2-.104.332-.134.576-.134.29 0 .52.053.685.158a.471.471 0 0 0 .054.032c.003 0 .003-.233.003-.518l-.003-.518-.054-.017c-.128-.04-.23-.053-.471-.055-.128-.002-.246-.001-.263.002ZM39.3 72.887c.002 2.22 0 2.127.046 2.432.193 1.287.92 1.93 2.187 1.93.259 0 .423-.02.647-.077.52-.133.945-.462 1.248-.972.03-.05.06-.091.068-.091.01 0 .012.074.012.498v.5H44.515v-6.288h-1.006l-.003 1.939c-.003 1.774-.004 1.948-.018 2.042-.059.396-.176.695-.379.968-.08.106-.255.278-.357.351a1.56 1.56 0 0 1-.684.271c-.13.02-.385.02-.519 0-.49-.07-.826-.311-1.032-.745a2.428 2.428 0 0 1-.203-.76c-.013-.105-.015-.308-.017-2.092l-.004-1.974h-.997l.003 2.068Z"/></g><defs><clipPath id="a"><path fill="#fff" d="M0 0h97.818v80H0z"/></clipPath></defs></svg>