<svg xmlns="http://www.w3.org/2000/svg" width="196" height="160" fill="none">
    <g fill="#5f3918" clip-path="url(#a)">
        <path
            d="M80.504.046a.946.946 0 0 0-.591.48c-.027.058-4.928 14.15-10.889 31.317-10.087 29.042-10.84 31.222-10.85 31.354a.837.837 0 0 0 .097.475.93.93 0 0 0 .584.469c.094.023 1.583.026 14.03.026 12.61 0 13.936-.001 14.034-.028.059-.014.148-.048.198-.073.123-.062.297-.235.365-.362.032-.058.798-2.28 1.704-4.936.905-2.657 1.672-4.901 1.703-4.989l.055-.155 9.474.004 9.473.005 1.705 4.996a550.611 550.611 0 0 0 1.747 5.075.986.986 0 0 0 .158.198c.123.123.25.196.413.239.084.023 1.92.026 13.365.026 11.857 0 13.28-.003 13.375-.026a.924.924 0 0 0 .659-.67c.051-.224.026-.415-.095-.675-.169-.367-.297-.783-.458-1.489-.188-.839-.286-1.173-.457-1.583-.527-1.26-1.22-1.934-2.21-2.15-.157-.033-.236-.039-.565-.039-.326 0-.415.006-.606.041a5.452 5.452 0 0 0-1.175.364c-1.015.484-1.589 1.462-1.692 2.88l-.028.35-.009.077-.159-.107c-.807-.541-1.286-1.286-1.567-2.431-.16-.65-.26-1.352-.383-2.69-.116-1.246-.274-1.907-.627-2.608a2.893 2.893 0 0 0-.62-.866c-.512-.513-1.068-.762-1.85-.83-.411-.034-1.099.037-1.471.157-.851.269-1.487 1.077-1.968 2.51a4.116 4.116 0 0 1-.091.256c-.014.018-.272-.41-.381-.63a3.954 3.954 0 0 1-.32-.873c-.129-.5-.15-.7-.152-1.39 0-.473.007-.66.032-.863.07-.565.155-1.033.385-2.075.194-.889.233-1.16.233-1.633 0-2.209-1.588-3.623-3.722-3.316-.8.114-1.446.436-1.945.967-.213.228-.361.43-.634.874-.034.055-.187-.522-.254-.962-.054-.338-.057-1.054-.011-1.416.103-.781.335-1.549.732-2.434.062-.14.272-.575.468-.967.365-.737.453-.944.54-1.28.196-.768.178-1.51-.054-2.22a4.598 4.598 0 0 0-.457-.908 4.3 4.3 0 0 0-.754-.753 3.528 3.528 0 0 0-.822-.412c-.538-.153-1.035-.087-1.662.221-.39.193-.755.44-1.348.92-.248.2-.317.248-.324.224-.022-.074-.1-.512-.127-.708a6.646 6.646 0 0 1-.028-1.121c.089-.92.447-1.667 1.198-2.505.077-.087.333-.36.57-.607.784-.823 1.072-1.191 1.43-1.822.408-.717.6-1.353.602-1.985.002-.75-.267-1.38-.824-1.942-.314-.315-.782-.646-1.065-.755a2.518 2.518 0 0 0-1.112-.139c-.577.048-1.139.193-2.032.524-.185.068-.34.12-.345.114-.016-.016.043-.481.085-.691.251-1.222.932-2.25 2.079-3.143.42-.328.942-.66 1.757-1.11.65-.362.834-.49 1.138-.79.9-.893 1.272-2.165.984-3.35a4.088 4.088 0 0 0-.533-1.215c-.148-.226-.5-.592-.698-.722-.709-.468-1.601-.584-2.903-.379-.157.025-.299.05-.315.055-.048.014-.041-.018.053-.233.403-.931 1.263-1.706 2.675-2.413.682-.342 1.265-.58 2.413-.989.882-.313 1.133-.42 1.484-.628.792-.472 1.25-1.09 1.432-1.927.035-.166.039-.237.041-.641 0-.284-.009-.503-.022-.581-.023-.134-.445-1.368-.513-1.503-.096-.189-.415-.5-.708-.691-.506-.33-1.29-.556-2.141-.618a18.93 18.93 0 0 1-.255-.02l-.11-.01.11-.145c.15-.192.481-.527.691-.692.189-.152.497-.357.665-.446a.932.932 0 0 0 .505-.892 1.59 1.59 0 0 0-.19-.566.954.954 0 0 0-.547-.381c-.091-.024-2.42-.027-19.89-.025-17.2 0-19.798.003-19.882.026Zm37.238 1.803c0 .007-.057.089-.127.181a6.893 6.893 0 0 0-.472.723c-.21.37-.45.902-.497 1.103a.912.912 0 0 0 .652 1.088c.077.021.28.03.987.043.91.016 1.079.026 1.467.09.289.049.494.107.67.196.228.113.216.095.392.595l.157.446.008.226c.015.383-.06.593-.293.822-.223.221-.52.37-1.235.624-1.157.41-1.675.609-2.244.867-1.287.58-2.24 1.202-2.983 1.949-.901.9-1.407 1.928-1.531 3.104-.036.324-.036.732 0 .863a.912.912 0 0 0 .652.663c.203.055.37.036 1.289-.144.814-.159 1.065-.193 1.469-.193.283 0 .369.006.463.032a.88.88 0 0 1 .57.426c.31.502.356 1.115.127 1.622-.127.28-.387.597-.617.754-.058.039-.327.194-.596.344-.978.543-1.541.917-2.155 1.424-.267.221-.882.832-1.076 1.072-.785.966-1.261 1.988-1.462 3.14a8.022 8.022 0 0 0-.036 2.226.87.87 0 0 0 .098.34.9.9 0 0 0 .926.505c.143-.018.439-.118 1.071-.366 1.312-.509 1.841-.666 2.279-.673l.191-.002.157.107c.206.14.445.378.516.517.08.153.103.269.091.47-.021.369-.215.823-.584 1.373-.235.347-.42.565-1.049 1.22-.887.923-1.284 1.451-1.63 2.17a5.387 5.387 0 0 0-.502 1.686c-.046.32-.044 1.293 0 1.647.1.764.287 1.546.549 2.296.126.361.233.51.461.646a.938.938 0 0 0 .935-.016c.157-.096.611-.443 1.033-.789.572-.47.871-.7 1.141-.881.41-.274.579-.33.739-.25.204.104.401.278.531.469.307.45.372 1.108.171 1.715a9.708 9.708 0 0 1-.383.824c-.363.727-.536 1.101-.701 1.521-.378.95-.597 1.817-.679 2.684-.037.387-.028 1.227.016 1.55a7.102 7.102 0 0 0 1.176 3.072c.24.36.39.491.65.568.11.032.343.037.464.009a.927.927 0 0 0 .419-.239c.137-.139.251-.33.62-1.05.31-.606.367-.711.514-.93.237-.356.524-.554.925-.641.212-.045.707-.045.871 0 .73.204 1.052.952.87 2.026-.019.121-.092.47-.158.775-.068.305-.155.72-.194.923-.331 1.666-.346 2.975-.046 4.16a6.255 6.255 0 0 0 1.51 2.775c.386.411.844.806 1.054.906.344.162.723.1 1.008-.167.176-.168.21-.246.354-.818.342-1.355.611-2.07.927-2.461.135-.167.194-.198.447-.237.276-.04.578-.043.76-.005.444.09.743.429.956 1.084.139.419.196.759.276 1.63.061.662.127 1.255.18 1.62.307 2.107.882 3.342 2.029 4.351l.116.102h-17.634l-1.688-4.956a507.379 507.379 0 0 0-1.749-5.08.908.908 0 0 0-.603-.48c-.097-.024-1.235-.027-10.383-.024l-10.276.006-.106.04a.973.973 0 0 0-.514.453c-.025.052-.807 2.33-1.738 5.061-.932 2.732-1.698 4.971-1.7 4.975-.003.003-5.78.003-12.838.001l-12.834-.005L70.86 32.119A210046.03 210046.03 0 0 0 81.368 1.865c.009-.029.89-.03 18.192-.03 10 0 18.182.007 18.182.014Zm20.009 57.52c.213.056.39.2.564.46.128.192.194.322.314.616.114.282.188.547.322 1.133a103.75 103.75 0 0 0 .18.762c0 .006-.732.01-1.628.01-1.467 0-1.628-.003-1.638-.028-.018-.046-.013-1.177.007-1.387.067-.727.262-1.136.632-1.329.144-.074.465-.183.686-.23a1.36 1.36 0 0 1 .561-.006Z" />
        <path
            d="M100.224 21.646c-.06.014-.155.046-.212.073-.142.067-.329.25-.4.388-.082.166-5.195 15.687-5.21 15.82a.928.928 0 0 0 .488.898c.227.114-.15.107 5.532.107 4.557 0 5.197-.004 5.297-.027a.912.912 0 0 0 .708-.939c-.007-.12-.301-1.02-2.586-7.952-1.433-4.347-2.601-7.86-2.632-7.918a.987.987 0 0 0-.322-.34.95.95 0 0 0-.663-.11Zm2.244 10.028 1.785 5.414-3.827.006c-2.107.001-3.835 0-3.838-.006-.01-.007 3.759-11.457 3.811-11.583.018-.04.034-.002.151.354l1.918 5.815ZM154.857 18.622a6.318 6.318 0 0 0-4.41 2.509 6.4 6.4 0 0 0-1.163 2.671 6.896 6.896 0 0 0 .009 2.271c.041.223.139.606.214.828.32.965.817 1.769 1.546 2.494.537.537 1.016.88 1.686 1.21a6.247 6.247 0 0 0 3.676.587 6.29 6.29 0 0 0 4.194-2.497c1.281-1.715 1.599-3.968.846-6.006a8.29 8.29 0 0 0-.556-1.127 6.494 6.494 0 0 0-2.012-2.01 6.367 6.367 0 0 0-2.702-.932 8.695 8.695 0 0 0-1.328.002Zm1.318 1.832a4.637 4.637 0 0 1 2.19.964c.084.067.248.217.365.336a4.493 4.493 0 0 1 .978 4.851 4.573 4.573 0 0 1-2.338 2.433 4.548 4.548 0 0 1-3.057.228 4.544 4.544 0 0 1-2.577-1.893 5.67 5.67 0 0 1-.45-.898 4.625 4.625 0 0 1-.169-2.53c.14-.66.507-1.395.968-1.943a4.508 4.508 0 0 1 2.878-1.555l.232-.027c.139-.016.801.007.98.034ZM158.801 96.974c-3.749.192-6.787 1.74-9.084 4.629-1.624 2.043-2.652 4.595-3.017 7.489-.128 1.027-.152 1.44-.152 2.805 0 1.205.008 1.415.081 2.288.365 4.321 1.83 7.478 4.352 9.375a9.12 9.12 0 0 0 1.525.935c1.521.759 3.255 1.175 5.387 1.293.748.043 1.95.021 2.698-.046 2.825-.253 5.12-1.211 6.793-2.839 1.392-1.355 2.14-2.933 2.372-5.005.037-.347.053-1.351.027-1.887-.029-.593-.057-.969-.075-.982-.032-.019-3.418-.894-3.428-.885-.006.007.019.226.053.49.139 1.04.171 1.403.183 2.055.011.583-.005.928-.067 1.393-.21 1.583-.859 2.94-1.913 3.993-.844.846-1.77 1.305-2.965 1.473a6.754 6.754 0 0 1-.677.023c-.545 0-.727-.018-1.14-.109-2.577-.57-4.094-3.182-4.557-7.843-.112-1.12-.136-1.731-.136-3.482 0-1.524.011-1.939.072-2.983.336-5.724 1.661-8.983 3.971-9.777.463-.159.946-.216 1.548-.18 1.669.094 2.823.698 3.595 1.88.533.816.834 1.849.96 3.304.031.349.031 1.633-.001 2.321-.015.301-.022.55-.018.553.003.004.787-.35 1.74-.787l1.731-.794v-.189c0-.23-.029-.808-.054-1.086-.124-1.386-.418-2.499-.926-3.5a6.097 6.097 0 0 0-1.211-1.683c-1.257-1.257-3.063-1.99-5.414-2.2a18.355 18.355 0 0 0-2.253-.042ZM8.454 97.421c-.014.045-8.239 27.842-8.247 27.881l-.011.041h3.168l.889-3.028.889-3.027H13.553l.02.057c.008.032.379 1.38.82 2.997.442 1.615.807 2.953.813 2.969.009.03.219.032 4.078.032 2.456 0 4.068-.007 4.068-.016 0-.009-1.747-6.292-3.883-13.963-2.135-7.67-3.882-13.95-3.882-13.955 0-.006-1.603-.01-3.562-.01-2.835 0-3.564.006-3.57.022Zm2.688 12.828c.895 3.37 1.634 6.148 1.64 6.175l.012.05h-3.42c-1.883 0-3.422-.006-3.422-.013 0-.007 3.42-11.911 3.537-12.317.005-.018.012-.03.016-.027.003.004.739 2.763 1.636 6.132ZM28.695 111.371v13.972h19.59v-2.796H36.798V97.4h-8.104v13.971ZM53.147 111.371v13.972h19.59v-2.796H61.25V97.4h-8.103v13.971ZM77.617 111.371v13.972h8.103V97.4h-8.103v13.971ZM99.282 97.421c-.023.063-8.254 27.891-8.254 27.906 0 .009.653.016 1.581.016h1.582l.888-3.028.89-3.027h4.207c3.99 0 4.207.001 4.216.03.005.018.367 1.337.803 2.935.436 1.596.805 2.946.821 2.995l.027.095h4.067c2.239 0 4.07-.006 4.07-.013 0-.007-1.749-6.294-3.886-13.971l-3.886-13.96h-3.559c-2.831 0-3.561.006-3.567.022Zm2.716 12.939c.891 3.353 1.621 6.099 1.621 6.105 0 .005-1.539.009-3.42.009-1.88 0-3.419-.007-3.419-.016 0-.013 3.507-12.221 3.539-12.317.009-.029.016-.02.034.044l1.645 6.175ZM119.362 111.371v13.972h2.725l.004-8.828.005-8.829 5.824 8.829 5.823 8.828h6.207V97.4h-2.725v19.1l-6.367-9.551-6.367-9.55h-5.129v13.972ZM175.996 111.371v13.972h19.822v-2.796H184.1v-11.078h8.423l-.003-1.403-.005-1.402-4.207-.005-4.208-.004V100.214h10.009V97.4h-18.113v13.971ZM34.759 136.333c-1.31.105-2.362.381-3.402.889-1.7.833-3.168 2.313-4 4.034-.474.981-.752 2.012-.883 3.268-.04.375-.045 1.756-.01 2.155.206 2.268.96 4.024 2.337 5.439 1.336 1.371 2.925 2.114 5.005 2.336a16.1 16.1 0 0 0 1.79.027c1.804-.107 3.423-.549 4.903-1.341l.235-.127v-7.991H34.82v1.87h3.865v4.933l-.093.054a7.447 7.447 0 0 1-.87.37c-1.358.469-3.098.536-4.532.178-1.515-.377-2.76-1.301-3.58-2.659-.566-.936-.906-2.112-1.006-3.472a17.49 17.49 0 0 1 0-1.56c.152-1.963.843-3.529 2.104-4.764 1.043-1.021 2.26-1.589 3.774-1.762.55-.064 1.448-.051 2.14.027 1.3.149 2.5.534 3.512 1.129.127.075.234.135.237.135.002 0 .005-.511.005-1.136v-1.136l-.092-.041c-1.081-.47-2.052-.705-3.434-.832-.363-.032-1.78-.05-2.092-.023ZM164.011 136.331c-1.767.136-3.26.668-4.569 1.628a9.404 9.404 0 0 0-1.793 1.767c-.974 1.284-1.558 2.808-1.758 4.593-.062.55-.078.951-.067 1.638.012.825.064 1.354.199 2.03.314 1.578.949 2.871 1.966 4.006 1.345 1.499 3.153 2.335 5.377 2.486a18 18 0 0 0 1.576 0c1.503-.091 2.707-.378 3.811-.907l.191-.09v-.998c0-.548-.004-.997-.007-.997-.004 0-.07.036-.145.08-.863.511-2.007.878-3.161 1.013-.643.077-1.524.095-2.03.04-1.555-.166-2.736-.72-3.751-1.758-1.047-1.072-1.638-2.42-1.834-4.184a16.773 16.773 0 0 1-.027-1.791c.121-1.769.631-3.179 1.576-4.36a8.13 8.13 0 0 1 .804-.828c1.184-1.021 2.66-1.533 4.411-1.533 1.414 0 2.809.331 3.964.945l.2.107v-2.19l-.084-.038a8.923 8.923 0 0 0-.728-.258c-.563-.173-1.258-.299-2.055-.376-.344-.032-1.742-.05-2.066-.025ZM126.557 145.405v8.807h9.119v-1.87h-7.071v-15.744h-2.048v8.807ZM142.158 145.405v8.807h9.137v-1.87h-7.071v-15.744h-2.066v8.807ZM65.756 141.348c-2.087.07-3.727.86-4.83 2.333-.586.784-.969 1.744-1.145 2.871-.155.996-.146 2.173.028 3.11.234 1.262.782 2.335 1.63 3.186.981.985 2.183 1.508 3.749 1.633.328.027 1.21.011 1.512-.029.84-.103 1.492-.295 2.144-.626a5.353 5.353 0 0 0 1.357-.994c1.233-1.225 1.842-2.873 1.842-4.969 0-1.808-.426-3.297-1.254-4.397-.883-1.174-2.105-1.856-3.683-2.059a11.134 11.134 0 0 0-1.092-.068l-.258.009Zm.855 1.724c.63.087 1.223.308 1.674.627.219.155.632.568.787.789.622.88.908 1.97.908 3.455 0 .572-.026.939-.103 1.389-.248 1.47-.946 2.531-2.01 3.062-.508.253-.98.372-1.64.411-.982.059-1.88-.157-2.59-.62-1.001-.653-1.644-1.752-1.842-3.147a9.127 9.127 0 0 1-.044-1.713c.064-.796.242-1.489.53-2.08.643-1.314 1.733-2.061 3.208-2.199a7.542 7.542 0 0 1 1.122.026ZM103.093 141.354c-1.059.065-1.976.406-2.724 1.009-.39.316-.79.763-1.1 1.236-.088.136-.174.248-.186.248-.02 0-.023-.205-.023-1.104v-1.105h-2.013V160h2.013v-3.802c0-3.277.003-3.803.025-3.803.014 0 .08.079.146.173.194.285.374.499.61.736.647.643 1.386 1.008 2.326 1.15.102.016.367.032.615.038 2.039.044 3.604-.761 4.671-2.401.606-.933.955-2.002 1.11-3.4.039-.349.055-1.503.026-1.893-.114-1.55-.552-2.787-1.33-3.758-.695-.867-1.624-1.412-2.741-1.606a6.57 6.57 0 0 0-1.425-.08Zm.241 1.693c1.052.096 1.873.586 2.47 1.477.415.619.664 1.448.737 2.448a12.47 12.47 0 0 1-.028 1.541c-.093.908-.282 1.613-.604 2.253-.239.47-.465.785-.805 1.113-.593.572-1.288.865-2.189.926a3.771 3.771 0 0 1-1.442-.173c-1.154-.376-2.079-1.453-2.333-2.717-.077-.385-.084-.574-.077-1.901.007-1.17.01-1.252.048-1.487a4.63 4.63 0 0 1 .412-1.353c.393-.805 1.001-1.43 1.731-1.781.595-.287 1.355-.413 2.08-.346ZM53.307 141.437c-.151.02-.486.103-.641.16-.976.364-1.774 1.247-2.192 2.428-.043.121-.075.189-.095.192-.026.006-.028-.107-.028-1.286v-1.293h-2.013v12.574h2.013v-3.398c0-3.742.002-3.813.117-4.456.235-1.307.907-2.365 1.787-2.819.4-.209.662-.269 1.15-.269.579 0 1.042.107 1.371.317.054.035.104.064.107.064.006 0 .007-.467.006-1.037l-.006-1.036-.107-.034c-.256-.08-.46-.105-.944-.11a8.076 8.076 0 0 0-.525.003ZM78.78 145.774c.005 4.44.002 4.254.093 4.864.386 2.575 1.84 3.859 4.374 3.859.518 0 .847-.039 1.294-.153 1.04-.266 1.89-.925 2.497-1.943.06-.102.121-.184.136-.184.021 0 .024.148.024.998v.997h2.013v-12.574H87.2l-.007 3.878c-.005 3.547-.007 3.896-.035 4.083-.118.793-.353 1.391-.757 1.936-.16.212-.511.558-.716.704a3.12 3.12 0 0 1-1.368.541c-.258.039-.77.039-1.036 0-.982-.139-1.653-.623-2.065-1.491-.2-.424-.324-.885-.406-1.521-.026-.208-.03-.614-.035-4.181l-.008-3.949h-1.994l.007 4.136Z" />
    </g>
    <defs>
        <clipPath id="a">
            <path fill="#fff" d="M.182 0h195.637v160H.182z" />
        </clipPath>
    </defs>
</svg>