<svg width="196" height="160" viewBox="0 0 196 160" fill="none" xmlns="http://www.w3.org/2000/svg">
<g clip-path="url(#clip0_243_369)">
<path d="M80.504 0.0463715C80.2511 0.114052 80.0142 0.306393 79.9127 0.525448C79.886 0.584221 74.9848 14.6768 69.024 31.8433C58.9367 60.8852 58.1834 63.0651 58.1745 63.1969C58.162 63.3767 58.1887 63.5085 58.2707 63.6724C58.3846 63.8986 58.6055 64.0749 58.8548 64.1408C58.9492 64.1639 60.4381 64.1675 72.8851 64.1675C85.4959 64.1675 86.821 64.1657 86.9189 64.139C86.9777 64.1247 87.0667 64.0909 87.1166 64.066C87.2395 64.0036 87.414 63.8309 87.4817 63.7044C87.5138 63.6457 88.2796 61.4248 89.1861 58.7677C90.0908 56.1105 90.8584 53.8665 90.8886 53.7792L90.9439 53.6243L100.418 53.6279L109.891 53.6332L111.596 58.6287C112.534 61.3767 113.32 63.6599 113.343 63.7044C113.364 63.749 113.437 63.838 113.501 63.9021C113.624 64.025 113.751 64.098 113.914 64.1408C113.998 64.1639 115.834 64.1675 127.279 64.1675C139.136 64.1675 140.559 64.1639 140.654 64.1408C140.978 64.0553 141.236 63.7935 141.313 63.4711C141.364 63.2467 141.339 63.0562 141.218 62.7962C141.049 62.4293 140.921 62.0125 140.76 61.3073C140.572 60.4685 140.474 60.1336 140.303 59.724C139.776 58.4631 139.083 57.7899 138.093 57.5744C137.936 57.5406 137.857 57.5352 137.528 57.5352C137.202 57.5352 137.113 57.5406 136.922 57.5762C136.529 57.6492 136.034 57.8024 135.747 57.9395C134.732 58.4239 134.158 59.4017 134.055 60.8193C134.044 60.9707 134.03 61.1292 134.027 61.1702L134.018 61.2467L133.859 61.1399C133.052 60.5985 132.573 59.854 132.292 58.7089C132.132 58.0588 132.032 57.3572 131.909 56.0197C131.793 54.773 131.635 54.1123 131.282 53.4106C131.092 53.0312 130.949 52.8336 130.662 52.545C130.15 52.0321 129.594 51.7828 128.812 51.7151C128.401 51.6813 127.713 51.7525 127.341 51.8718C126.49 52.1408 125.854 52.9493 125.373 54.3812C125.327 54.5183 125.286 54.6341 125.282 54.6376C125.268 54.6555 125.01 54.228 124.901 54.0072C124.746 53.6902 124.666 53.4729 124.581 53.1345C124.452 52.6341 124.431 52.4346 124.429 51.7454C124.429 51.2717 124.436 51.0847 124.461 50.8816C124.531 50.3171 124.616 49.8487 124.846 48.8068C125.04 47.9181 125.079 47.6474 125.079 47.1737C125.079 44.9653 123.491 43.5513 121.357 43.8576C120.557 43.9716 119.911 44.2939 119.412 44.8246C119.199 45.0526 119.051 45.2556 118.778 45.6991C118.744 45.7543 118.591 45.1773 118.524 44.7374C118.47 44.399 118.467 43.6831 118.513 43.3215C118.616 42.5397 118.848 41.7721 119.245 40.887C119.307 40.7463 119.517 40.3117 119.713 39.9199C120.078 39.1826 120.166 38.976 120.253 38.6394C120.449 37.8718 120.431 37.1292 120.199 36.4204C120.123 36.1853 119.886 35.7151 119.742 35.5121C119.585 35.293 119.204 34.9119 118.988 34.7588C118.775 34.6074 118.369 34.4043 118.166 34.3474C117.628 34.1942 117.131 34.2601 116.504 34.5682C116.114 34.7605 115.749 35.0081 115.156 35.4872C114.908 35.6884 114.839 35.7365 114.832 35.7116C114.81 35.6385 114.732 35.2004 114.705 35.0045C114.666 34.7107 114.652 34.1479 114.677 33.8825C114.766 32.9636 115.124 32.2156 115.875 31.3785C115.952 31.2913 116.208 31.0188 116.445 30.7712C117.229 29.9484 117.517 29.5798 117.875 28.9493C118.283 28.2316 118.475 27.5958 118.477 26.9636C118.479 26.2138 118.21 25.5833 117.653 25.0223C117.339 24.7071 116.871 24.3759 116.588 24.2672C116.256 24.1408 115.882 24.0945 115.476 24.1283C114.899 24.1764 114.337 24.3206 113.444 24.6519C113.259 24.7196 113.104 24.7712 113.099 24.7659C113.083 24.7498 113.142 24.285 113.184 24.0749C113.435 22.8531 114.116 21.8255 115.263 20.9315C115.683 20.6038 116.205 20.2726 117.02 19.822C117.67 19.4604 117.854 19.3322 118.158 19.0312C119.058 18.139 119.43 16.8674 119.142 15.6813C119.04 15.2699 118.846 14.8264 118.609 14.4667C118.461 14.2405 118.109 13.8754 117.911 13.7454C117.202 13.277 116.31 13.1612 115.008 13.3661C114.851 13.391 114.709 13.4159 114.693 13.4213C114.645 13.4355 114.652 13.4035 114.746 13.188C115.149 12.2565 116.009 11.4818 117.421 10.7748C118.103 10.4328 118.686 10.1942 119.834 9.78636C120.716 9.47291 120.967 9.36605 121.318 9.15768C122.11 8.68573 122.568 8.06775 122.75 7.2307C122.785 7.06507 122.789 6.99384 122.791 6.58956C122.791 6.30639 122.782 6.08734 122.769 6.00898C122.746 5.8754 122.324 4.64121 122.256 4.50586C122.16 4.31708 121.841 4.00541 121.548 3.81485C121.042 3.48538 120.258 3.2592 119.407 3.19687C119.329 3.19152 119.215 3.18262 119.152 3.17727L119.042 3.16659L119.152 3.02233C119.302 2.82999 119.633 2.49517 119.843 2.32954C120.032 2.17817 120.34 1.97335 120.508 1.88431C120.844 1.70621 121.042 1.35715 121.013 0.992058C121.003 0.840675 120.906 0.557507 120.823 0.425716C120.709 0.249401 120.499 0.101585 120.276 0.0445938C120.185 0.0214386 117.856 0.0178833 100.386 0.0196609C83.1861 0.0196609 80.5877 0.0232239 80.504 0.0463715ZM117.742 1.84869C117.742 1.85581 117.685 1.93774 117.615 2.03035C117.446 2.25475 117.291 2.49517 117.143 2.75341C116.933 3.12207 116.693 3.65457 116.646 3.85581C116.532 4.33311 116.819 4.80862 117.298 4.94397C117.375 4.96534 117.578 4.97425 118.285 4.98671C119.195 5.00274 119.364 5.01343 119.752 5.07754C120.041 5.12563 120.246 5.1844 120.422 5.27345C120.65 5.38564 120.638 5.36784 120.814 5.86828L120.971 6.31351L120.979 6.5397C120.994 6.9226 120.919 7.13275 120.686 7.36249C120.463 7.58333 120.166 7.73293 119.451 7.98582C118.294 8.39544 117.776 8.59491 117.207 8.85314C115.92 9.43373 114.967 10.0553 114.224 10.8015C113.323 11.7027 112.817 12.7303 112.693 13.9057C112.657 14.2298 112.657 14.6376 112.693 14.7694C112.778 15.0971 113.024 15.3482 113.345 15.4319C113.548 15.4872 113.715 15.4676 114.634 15.2877C115.448 15.1292 115.699 15.0954 116.103 15.0954C116.386 15.0954 116.472 15.1007 116.566 15.1274C116.833 15.2022 116.994 15.3215 117.136 15.5531C117.446 16.0553 117.492 16.6679 117.263 17.1755C117.136 17.4551 116.876 17.7721 116.646 17.9288C116.588 17.968 116.319 18.123 116.05 18.2726C115.072 18.8157 114.509 19.1897 113.895 19.6973C113.628 19.9181 113.013 20.529 112.819 20.7694C112.034 21.7347 111.558 22.757 111.357 23.9092C111.243 24.5682 111.229 25.4177 111.321 26.1354C111.343 26.2975 111.359 26.3563 111.419 26.4756C111.594 26.83 111.959 27.0277 112.345 26.9796C112.488 26.9618 112.784 26.862 113.416 26.6145C114.728 26.1051 115.257 25.9484 115.695 25.9413L115.886 25.9395L116.043 26.0464C116.249 26.1853 116.488 26.4239 116.559 26.5629C116.639 26.716 116.662 26.8318 116.65 27.033C116.629 27.4017 116.435 27.8558 116.066 28.4061C115.831 28.7534 115.646 28.9707 115.017 29.6261C114.13 30.5486 113.733 31.0775 113.387 31.7953C113.124 32.342 112.976 32.8371 112.885 33.4818C112.839 33.8024 112.841 34.7748 112.885 35.1292C112.985 35.8932 113.172 36.675 113.434 37.4248C113.56 37.7864 113.667 37.9342 113.895 38.0713C114.164 38.2334 114.55 38.2263 114.83 38.0553C114.987 37.9591 115.441 37.6118 115.863 37.2663C116.435 36.7962 116.734 36.5664 117.004 36.3848C117.414 36.1105 117.583 36.0553 117.743 36.1354C117.947 36.2387 118.144 36.4132 118.274 36.6038C118.581 37.0544 118.646 37.7116 118.445 38.3189C118.41 38.4275 118.256 38.7552 118.062 39.1434C117.699 39.8701 117.526 40.2441 117.361 40.6644C116.983 41.6136 116.764 42.4809 116.682 43.3482C116.645 43.7347 116.654 44.5753 116.698 44.8977C116.855 46.0268 117.225 46.9956 117.874 47.9698C118.114 48.3295 118.264 48.4613 118.524 48.5379C118.634 48.57 118.867 48.5753 118.988 48.5468C119.131 48.5148 119.295 48.4204 119.407 48.3082C119.544 48.1693 119.658 47.9787 120.027 47.2574C120.337 46.6519 120.394 46.5468 120.541 46.3278C120.778 45.9716 121.065 45.7739 121.466 45.6866C121.678 45.6421 122.173 45.6421 122.337 45.6866C123.067 45.8914 123.389 46.6394 123.207 47.7133C123.188 47.8344 123.115 48.1835 123.049 48.488C122.981 48.7926 122.894 49.2076 122.855 49.4106C122.524 51.0775 122.509 52.3865 122.809 53.5709C123.074 54.6216 123.581 55.5566 124.319 56.3456C124.705 56.757 125.163 57.1523 125.373 57.2521C125.717 57.4141 126.096 57.3518 126.381 57.0847C126.557 56.9173 126.591 56.8389 126.735 56.2672C127.077 54.9119 127.346 54.1978 127.662 53.8059C127.797 53.6385 127.856 53.6083 128.109 53.5691C128.385 53.5281 128.687 53.5263 128.869 53.5637C129.313 53.6546 129.612 53.9929 129.825 54.6483C129.964 55.0669 130.021 55.407 130.101 56.2779C130.162 56.9404 130.228 57.5335 130.281 57.8986C130.588 60.0054 131.163 61.2396 132.31 62.2494L132.426 62.3509H123.608H114.792L113.104 57.3946C112.174 54.6697 111.387 52.383 111.355 52.3153C111.247 52.082 111.02 51.9021 110.752 51.8344C110.655 51.8113 109.517 51.8077 100.369 51.8113L90.0926 51.8166L89.9875 51.8576C89.7684 51.9395 89.5601 52.123 89.4728 52.31C89.4479 52.3616 88.666 54.6394 87.7346 57.3714C86.8032 60.1034 86.0374 62.342 86.0356 62.3456C86.032 62.3491 80.2546 62.3491 73.1967 62.3474L60.3633 62.342L70.8601 32.1194C76.634 15.4961 81.3624 1.88253 81.3677 1.86472C81.3766 1.83622 82.2582 1.83444 99.5601 1.83444C109.56 1.83444 117.742 1.84157 117.742 1.84869ZM137.751 59.3696C137.964 59.4248 138.141 59.5691 138.315 59.8291C138.443 60.0214 138.509 60.1515 138.629 60.4453C138.743 60.7267 138.817 60.9921 138.951 61.578C139.01 61.8327 139.074 62.1069 139.093 62.1853C139.115 62.2654 139.131 62.3349 139.131 62.3402C139.131 62.3456 138.399 62.3509 137.503 62.3509C136.036 62.3509 135.875 62.3474 135.865 62.3224C135.847 62.2761 135.852 61.1452 135.872 60.9351C135.939 60.2084 136.134 59.7988 136.504 59.6065C136.648 59.5317 136.969 59.423 137.19 59.3767C137.378 59.3358 137.612 59.3322 137.751 59.3696Z" fill="white"/>
<path d="M100.224 21.6457C100.164 21.66 100.069 21.692 100.012 21.7187C99.87 21.7864 99.683 21.9681 99.6117 22.107C99.5298 22.2726 94.4167 37.7935 94.4025 37.9271C94.3615 38.2797 94.5699 38.6626 94.8904 38.8247C95.1166 38.9387 94.7408 38.9316 100.422 38.9316C104.979 38.9316 105.619 38.928 105.719 38.9048C106.155 38.8015 106.458 38.4008 106.427 37.9663C106.42 37.8452 106.126 36.9458 103.841 30.0144C102.408 25.6671 101.24 22.1533 101.209 22.0963C101.145 21.9734 101.004 21.8256 100.887 21.7561C100.689 21.6404 100.435 21.5976 100.224 21.6457ZM102.468 31.6742L104.253 37.0883L100.426 37.0936C98.3188 37.0954 96.5912 37.0936 96.5877 37.0883C96.5788 37.0812 100.347 25.6315 100.399 25.505C100.417 25.4641 100.433 25.5032 100.55 25.8594C100.623 26.0803 101.485 28.6965 102.468 31.6742Z" fill="white"/>
<path d="M154.857 18.6216C153.086 18.8139 151.517 19.7062 150.447 21.1309C149.866 21.9021 149.457 22.846 149.284 23.8023C149.161 24.4933 149.165 25.3642 149.293 26.073C149.334 26.2957 149.432 26.6786 149.507 26.9012C149.827 27.8665 150.324 28.6697 151.053 29.3945C151.59 29.9324 152.069 30.2743 152.739 30.6055C153.888 31.1719 155.142 31.3714 156.415 31.1915C158.098 30.9546 159.58 30.0713 160.609 28.6946C161.89 26.9795 162.208 24.7267 161.455 22.6893C161.352 22.4079 161.058 21.813 160.899 21.5619C160.388 20.7534 159.688 20.0552 158.887 19.5512C158.068 19.0401 157.145 18.7213 156.185 18.6198C155.866 18.586 155.17 18.5877 154.857 18.6216ZM156.175 20.4542C156.974 20.5771 157.731 20.9101 158.365 21.4177C158.449 21.4853 158.613 21.6349 158.73 21.7543C159.284 22.3081 159.694 23.0259 159.89 23.7863C160.13 24.7302 160.068 25.7062 159.708 26.6055C159.279 27.6723 158.41 28.5771 157.37 29.0383C156.406 29.4657 155.313 29.5477 154.313 29.2663C153.256 28.9706 152.34 28.2974 151.736 27.3731C151.592 27.1523 151.377 26.7231 151.286 26.4755C150.996 25.6848 150.937 24.7908 151.117 23.9448C151.257 23.2859 151.624 22.5503 152.085 22.0018C152.801 21.1487 153.872 20.5717 154.963 20.447C155.056 20.4364 155.161 20.4239 155.195 20.4203C155.334 20.4043 155.996 20.4275 156.175 20.4542Z" fill="white"/>
<path d="M158.801 96.9741C155.052 97.1664 152.014 98.7141 149.717 101.603C148.093 103.646 147.065 106.198 146.7 109.092C146.572 110.119 146.548 110.532 146.548 111.897C146.548 113.102 146.556 113.312 146.629 114.185C146.994 118.506 148.459 121.663 150.981 123.56C151.482 123.936 151.895 124.189 152.506 124.495C154.027 125.254 155.761 125.67 157.893 125.788C158.641 125.831 159.843 125.809 160.591 125.742C163.416 125.489 165.711 124.531 167.384 122.903C168.776 121.548 169.524 119.97 169.756 117.898C169.793 117.551 169.809 116.547 169.783 116.011C169.754 115.418 169.726 115.042 169.708 115.029C169.676 115.01 166.29 114.135 166.28 114.144C166.274 114.151 166.299 114.37 166.333 114.634C166.472 115.674 166.504 116.037 166.516 116.689C166.527 117.272 166.511 117.617 166.449 118.082C166.239 119.665 165.59 121.022 164.536 122.075C163.692 122.921 162.766 123.38 161.571 123.548C161.462 123.562 161.22 123.571 160.894 123.571C160.349 123.571 160.167 123.553 159.754 123.462C157.177 122.892 155.66 120.28 155.197 115.619C155.085 114.499 155.061 113.888 155.061 112.137C155.061 110.613 155.072 110.198 155.133 109.154C155.469 103.43 156.794 100.171 159.104 99.3766C159.567 99.2181 160.05 99.1611 160.652 99.1967C162.321 99.2911 163.475 99.8948 164.247 101.077C164.78 101.893 165.081 102.926 165.207 104.381C165.238 104.73 165.238 106.014 165.206 106.702C165.191 107.003 165.184 107.252 165.188 107.255C165.191 107.259 165.975 106.905 166.928 106.468L168.659 105.674V105.485C168.659 105.255 168.63 104.677 168.605 104.399C168.481 103.013 168.187 101.9 167.679 100.899C167.336 100.219 166.981 99.7274 166.468 99.2163C165.211 97.9589 163.405 97.2252 161.054 97.0168C160.374 96.9581 159.466 96.9402 158.801 96.9741Z" fill="white"/>
<path d="M8.4541 97.4211C8.43985 97.4657 0.215452 125.263 0.206547 125.302L0.195862 125.343H1.77912H3.36416L4.25285 122.315L5.14154 119.288H9.34813H13.5529L13.5725 119.345C13.5814 119.377 13.9519 120.725 14.3935 122.342C14.8352 123.957 15.2003 125.295 15.2057 125.311C15.2146 125.341 15.4247 125.343 19.284 125.343C21.7399 125.343 23.3517 125.336 23.3517 125.327C23.3517 125.318 21.6046 119.035 19.4692 111.364C17.3339 103.694 15.5868 97.414 15.5868 97.4087C15.5868 97.4033 13.9839 97.3998 12.0249 97.3998C9.18963 97.3998 8.46122 97.4051 8.4541 97.4211ZM11.1415 110.249C12.0374 113.619 12.7764 116.397 12.7818 116.424L12.7943 116.474H9.37306C7.49061 116.474 5.95187 116.468 5.95187 116.461C5.95187 116.454 9.37128 104.55 9.48883 104.144C9.49417 104.126 9.50129 104.114 9.50486 104.117C9.50842 104.121 10.2439 106.88 11.1415 110.249Z" fill="white"/>
<path d="M28.6945 111.371V125.343H38.4897H48.2849V123.945V122.547H42.5414H36.7978V109.973V97.3998H32.7462H28.6945V111.371Z" fill="white"/>
<path d="M53.1469 111.371V125.343H62.9421H72.7373V123.945V122.547H66.9938H61.2502V109.973V97.3998H57.1986H53.1469V111.371Z" fill="white"/>
<path d="M77.6171 111.371V125.343H81.6687H85.7204V111.371V97.3998H81.6687H77.6171V111.371Z" fill="white"/>
<path d="M99.2823 97.4211C99.2591 97.4835 91.0276 125.312 91.0276 125.327C91.0276 125.336 91.6812 125.343 92.6091 125.343H94.1905L95.0792 122.315L95.9697 119.288H100.176C104.166 119.288 104.383 119.289 104.392 119.318C104.397 119.336 104.759 120.655 105.195 122.253C105.631 123.849 106 125.199 106.016 125.248L106.043 125.343H110.11C112.349 125.343 114.18 125.337 114.18 125.33C114.18 125.323 112.431 119.036 110.294 111.359L106.408 97.3998H102.849C100.018 97.3998 99.2876 97.4051 99.2823 97.4211ZM101.998 110.36C102.889 113.713 103.619 116.459 103.619 116.465C103.619 116.47 102.08 116.474 100.199 116.474C98.3188 116.474 96.78 116.467 96.78 116.458C96.78 116.445 100.287 104.237 100.319 104.141C100.328 104.112 100.335 104.121 100.353 104.185C100.365 104.23 101.106 107.008 101.998 110.36Z" fill="white"/>
<path d="M119.362 111.371V125.343H120.725H122.087L122.091 116.515L122.096 107.686L127.92 116.515L133.743 125.343H136.848H139.95V111.371V97.3998H138.588H137.225V106.949V116.5L130.858 106.949L124.491 97.3998H121.927H119.362V111.371Z" fill="white"/>
<path d="M175.996 111.371V125.343H185.907H195.818V123.945V122.547H189.959H184.1V117.008V111.469H188.312H192.523L192.52 110.066L192.515 108.664L188.308 108.659L184.1 108.655V104.434V100.214H189.104H194.109V98.8067V97.3998H185.052H175.996V111.371Z" fill="white"/>
<path d="M34.7586 136.333C33.4496 136.438 32.3971 136.714 31.357 137.222C29.6562 138.055 28.1887 139.535 27.357 141.256C26.8833 142.237 26.6055 143.268 26.4737 144.524C26.4345 144.899 26.4292 146.28 26.4648 146.679C26.6696 148.947 27.4247 150.703 28.8014 152.118C30.1371 153.489 31.7257 154.232 33.8058 154.454C34.1638 154.492 35.1504 154.508 35.5957 154.481C37.3998 154.374 39.0186 153.932 40.4986 153.14L40.7337 153.013V149.019V145.022H37.7773H34.821V145.957V146.892H36.7533H38.6856V149.359V151.825L38.593 151.879C38.4381 151.966 37.9999 152.153 37.7221 152.249C36.365 152.718 34.6251 152.785 33.1914 152.427C31.6758 152.05 30.4309 151.126 29.6117 149.768C29.0454 148.832 28.7052 147.656 28.6055 146.296C28.5823 145.973 28.5823 145.044 28.6055 144.736C28.7568 142.773 29.4478 141.207 30.7088 139.972C31.7524 138.951 32.9688 138.383 34.4826 138.21C35.0329 138.146 35.9305 138.159 36.6233 138.237C37.9234 138.386 39.1237 138.771 40.1353 139.366C40.2617 139.441 40.3686 139.501 40.3722 139.501C40.3739 139.501 40.3775 138.99 40.3775 138.365V137.229L40.2849 137.188C39.2039 136.718 38.2332 136.483 36.8512 136.356C36.4879 136.324 35.0703 136.306 34.7586 136.333Z" fill="white"/>
<path d="M164.011 136.331C162.244 136.467 160.751 136.999 159.442 137.959C158.81 138.424 158.13 139.093 157.649 139.726C156.675 141.01 156.091 142.534 155.891 144.319C155.829 144.869 155.813 145.27 155.824 145.957C155.836 146.782 155.888 147.311 156.023 147.987C156.337 149.565 156.972 150.858 157.989 151.993C159.334 153.492 161.142 154.328 163.366 154.479C163.717 154.502 164.547 154.502 164.942 154.479C166.445 154.388 167.649 154.101 168.753 153.572L168.944 153.482V152.484C168.944 151.936 168.94 151.487 168.937 151.487C168.933 151.487 168.867 151.523 168.792 151.567C167.929 152.078 166.785 152.445 165.631 152.58C164.988 152.657 164.107 152.675 163.601 152.62C162.046 152.454 160.865 151.9 159.85 150.862C158.803 149.79 158.212 148.442 158.016 146.678C157.979 146.331 157.963 145.286 157.989 144.887C158.11 143.118 158.62 141.708 159.565 140.527C159.747 140.301 160.137 139.898 160.369 139.699C161.553 138.678 163.029 138.166 164.78 138.166C166.194 138.166 167.589 138.497 168.744 139.111L168.944 139.218V138.123V137.028L168.86 136.99C168.727 136.931 168.365 136.803 168.132 136.732C167.569 136.559 166.874 136.433 166.077 136.356C165.733 136.324 164.335 136.306 164.011 136.331Z" fill="white"/>
<path d="M126.557 145.405V154.212H131.117H135.676V153.277V152.342H132.141H128.605V144.47V136.598H127.581H126.557V145.405Z" fill="white"/>
<path d="M142.158 145.405V154.212H146.727H151.295V153.277V152.342H147.76H144.224V144.47V136.598H143.191H142.158V145.405Z" fill="white"/>
<path d="M65.756 141.348C63.6687 141.418 62.0285 142.208 60.9261 143.681C60.3401 144.465 59.9572 145.425 59.7809 146.552C59.626 147.548 59.6349 148.725 59.8094 149.662C60.0427 150.924 60.5912 151.997 61.439 152.848C62.4203 153.833 63.6224 154.356 65.1879 154.481C65.5155 154.508 66.3971 154.492 66.6999 154.452C67.5405 154.349 68.1923 154.157 68.8441 153.826C69.3464 153.567 69.7791 153.252 70.2012 152.832C71.4336 151.607 72.0427 149.959 72.0427 147.863C72.0427 146.055 71.6171 144.566 70.7889 143.466C69.9056 142.292 68.6838 141.61 67.1059 141.407C66.8245 141.371 66.2119 141.334 66.0142 141.339C65.9554 141.341 65.8397 141.345 65.756 141.348ZM66.6108 143.072C67.2413 143.159 67.8343 143.38 68.2849 143.699C68.504 143.854 68.9171 144.267 69.0721 144.488C69.6936 145.368 69.9804 146.458 69.9804 147.943C69.9804 148.515 69.9537 148.882 69.8771 149.332C69.6295 150.802 68.9314 151.863 67.8664 152.394C67.3588 152.647 66.8869 152.766 66.2279 152.805C65.2448 152.864 64.3472 152.648 63.6367 152.185C62.6358 151.532 61.9928 150.433 61.7952 149.038C61.7293 148.577 61.7097 147.813 61.7506 147.325C61.8147 146.529 61.9928 145.836 62.2814 145.245C62.9243 143.931 64.0142 143.184 65.4888 143.046C65.7239 143.024 66.3651 143.038 66.6108 143.072Z" fill="white"/>
<path d="M103.093 141.354C102.034 141.419 101.117 141.76 100.369 142.363C99.9786 142.679 99.5796 143.126 99.2697 143.599C99.1807 143.735 99.0952 143.847 99.0827 143.847C99.0631 143.847 99.0596 143.642 99.0596 142.743V141.638H98.0534H97.0471V150.819V160H98.0534H99.0596V156.198C99.0596 152.921 99.0631 152.395 99.0845 152.395C99.0988 152.395 99.1647 152.474 99.2306 152.568C99.4247 152.853 99.6046 153.067 99.8414 153.304C100.488 153.947 101.227 154.312 102.167 154.454C102.269 154.47 102.534 154.486 102.782 154.492C104.821 154.536 106.386 153.731 107.453 152.091C108.059 151.158 108.408 150.089 108.563 148.691C108.602 148.342 108.618 147.188 108.589 146.798C108.475 145.248 108.037 144.011 107.259 143.04C106.564 142.173 105.635 141.628 104.518 141.434C104.075 141.357 103.533 141.327 103.093 141.354ZM103.334 143.047C104.386 143.143 105.207 143.633 105.804 144.524C106.219 145.143 106.468 145.972 106.541 146.972C106.566 147.327 106.552 148.134 106.513 148.513C106.42 149.421 106.231 150.126 105.909 150.766C105.67 151.236 105.444 151.551 105.104 151.879C104.511 152.451 103.816 152.744 102.915 152.805C102.41 152.839 101.932 152.782 101.473 152.632C100.319 152.256 99.3944 151.179 99.1397 149.915C99.0631 149.53 99.056 149.341 99.0631 148.014C99.0703 146.844 99.0738 146.762 99.1112 146.527C99.1932 146.009 99.3232 145.581 99.5226 145.174C99.9162 144.369 100.524 143.744 101.254 143.393C101.849 143.106 102.609 142.98 103.334 143.047Z" fill="white"/>
<path d="M53.3072 141.437C53.1558 141.457 52.821 141.54 52.666 141.597C51.6901 141.961 50.8922 142.844 50.4737 144.025C50.4309 144.146 50.3989 144.214 50.3793 144.217C50.3526 144.223 50.3508 144.11 50.3508 142.931V141.638H49.3446H48.3383V147.925V154.212H49.3446H50.3508V150.814C50.3508 147.072 50.3526 147.001 50.4683 146.358C50.7034 145.051 51.3748 143.993 52.2546 143.539C52.6553 143.33 52.9171 143.27 53.4051 143.27C53.9839 143.27 54.447 143.377 54.7764 143.587C54.8299 143.622 54.8797 143.651 54.8833 143.651C54.8886 143.651 54.8904 143.184 54.8886 142.614L54.8833 141.578L54.7764 141.544C54.52 141.464 54.3152 141.439 53.8325 141.434C53.5779 141.43 53.341 141.432 53.3072 141.437Z" fill="white"/>
<path d="M78.78 145.774C78.7854 150.214 78.7818 150.028 78.8726 150.638C79.2591 153.213 80.7123 154.497 83.2466 154.497C83.7649 154.497 84.0943 154.458 84.5414 154.344C85.5814 154.078 86.4309 153.419 87.0382 152.401C87.0988 152.299 87.1594 152.217 87.1736 152.217C87.195 152.217 87.1985 152.365 87.1985 153.215V154.212H88.2048H89.211V147.925V141.638H88.2048H87.2003L87.1932 145.516C87.1878 149.063 87.1861 149.412 87.1576 149.599C87.04 150.392 86.8049 150.99 86.4007 151.535C86.2404 151.747 85.8895 152.093 85.6847 152.239C85.2822 152.524 84.821 152.707 84.317 152.78C84.0587 152.819 83.5476 152.819 83.2805 152.78C82.2992 152.641 81.6277 152.157 81.2163 151.289C81.0151 150.865 80.8922 150.404 80.8103 149.768C80.7836 149.56 80.78 149.154 80.7747 145.587L80.7675 141.638H79.7702H78.7729L78.78 145.774Z" fill="white"/>
</g>
<defs>
<clipPath id="clip0_243_369">
<rect width="195.637" height="160" fill="white" transform="translate(0.181641)"/>
</clipPath>
</defs>
</svg>
