<svg width="98" height="80" viewBox="0 0 98 80" fill="none" xmlns="http://www.w3.org/2000/svg">
<g id="Alliance-Group-logo_just-contour_png 1" clip-path="url(#clip0_104_306)">
<g id="Group">
<path id="Vector" d="M40.252 0.0231476C40.1256 0.0569878 40.0071 0.153158 39.9564 0.262686C39.943 0.292072 37.4924 7.33838 34.512 15.9216C29.4684 30.4426 29.0917 31.5325 29.0873 31.5984C29.081 31.6883 29.0944 31.7542 29.1354 31.8362C29.1923 31.9492 29.3028 32.0374 29.4274 32.0703C29.4746 32.0819 30.2191 32.0837 36.4426 32.0837C42.748 32.0837 43.4105 32.0828 43.4595 32.0695C43.4889 32.0623 43.5334 32.0454 43.5583 32.0329C43.6198 32.0018 43.707 31.9154 43.7409 31.8522C43.7569 31.8228 44.1398 30.7124 44.5931 29.3838C45.0454 28.0552 45.4292 26.9332 45.4444 26.8896L45.472 26.8121L50.2093 26.8139L54.9457 26.8166L55.7979 29.3143C56.2671 30.6883 56.6598 31.8299 56.6714 31.8522C56.6821 31.8744 56.7186 31.919 56.7507 31.951C56.8121 32.0125 56.8753 32.049 56.9573 32.0703C56.9991 32.0819 57.9172 32.0837 63.6394 32.0837C69.5681 32.0837 70.2796 32.0819 70.3268 32.0703C70.4889 32.0276 70.618 31.8967 70.6563 31.7355C70.6821 31.6233 70.6696 31.528 70.6091 31.398C70.5245 31.2146 70.4604 31.0062 70.3802 30.6536C70.2859 30.2342 70.2369 30.0668 70.1514 29.862C69.8878 29.2315 69.5414 28.8949 69.0463 28.7872C68.9679 28.7703 68.9288 28.7676 68.764 28.7676C68.6011 28.7676 68.5566 28.7703 68.4613 28.7881C68.2645 28.8246 68.0169 28.9012 67.8736 28.9697C67.366 29.2119 67.0793 29.7008 67.0276 30.4096C67.0223 30.4853 67.0151 30.5646 67.0134 30.585L67.0089 30.6233L66.9297 30.5699C66.5263 30.2992 66.2867 29.927 66.146 29.3544C66.0659 29.0294 66.016 28.6785 65.9546 28.0098C65.8967 27.3865 65.8175 27.0561 65.6411 26.7053C65.5459 26.5156 65.4746 26.4167 65.3313 26.2725C65.0748 26.016 64.797 25.8914 64.4061 25.8575C64.2004 25.8406 63.8566 25.8762 63.6705 25.9359C63.2449 26.0703 62.927 26.4746 62.6866 27.1906C62.6634 27.2591 62.6429 27.317 62.6411 27.3188C62.634 27.3277 62.5049 27.114 62.4506 27.0036C62.3731 26.8451 62.333 26.7364 62.2903 26.5672C62.2262 26.317 62.2155 26.2173 62.2146 25.8727C62.2146 25.6358 62.2182 25.5423 62.2306 25.4408C62.2654 25.1585 62.3081 24.9243 62.423 24.4034C62.52 23.959 62.5396 23.8237 62.5396 23.5868C62.5396 22.4826 61.7453 21.7756 60.6785 21.9288C60.2787 21.9858 59.9555 22.1469 59.7062 22.4123C59.5993 22.5263 59.5254 22.6278 59.3891 22.8495C59.3722 22.8771 59.2956 22.5886 59.2618 22.3687C59.2351 22.1995 59.2333 21.8415 59.2565 21.6607C59.3081 21.2698 59.4239 20.886 59.6224 20.4435C59.6536 20.3731 59.7587 20.1558 59.8566 19.9599C60.0392 19.5913 60.0828 19.488 60.1265 19.3197C60.2244 18.9359 60.2155 18.5646 60.0997 18.2101C60.0614 18.0926 59.943 17.8575 59.8709 17.756C59.7925 17.6465 59.602 17.4559 59.4942 17.3793C59.3874 17.3036 59.1843 17.2021 59.0828 17.1736C58.8139 17.0971 58.5655 17.13 58.252 17.2841C58.057 17.3802 57.8745 17.504 57.5779 17.7435C57.4541 17.8442 57.4194 17.8682 57.4159 17.8557C57.4052 17.8192 57.366 17.6002 57.3526 17.5022C57.333 17.3553 57.3259 17.0739 57.3384 16.9412C57.3829 16.4817 57.5619 16.1077 57.9377 15.6892C57.976 15.6456 58.1042 15.5093 58.2226 15.3856C58.6144 14.9742 58.7587 14.7898 58.9377 14.4746C59.1416 14.1158 59.2378 13.7979 59.2387 13.4817C59.2395 13.1069 59.1051 12.7916 58.8264 12.5111C58.6696 12.3535 58.4354 12.1879 58.2939 12.1336C58.1282 12.0703 57.9412 12.0472 57.7382 12.0641C57.4497 12.0882 57.1683 12.1603 56.7222 12.3259C56.6296 12.3597 56.5521 12.3856 56.5494 12.3829C56.5414 12.3749 56.5708 12.1425 56.5922 12.0374C56.7177 11.4265 57.0579 10.9127 57.6314 10.4657C57.8415 10.3019 58.1024 10.1362 58.5102 9.91095C58.8353 9.73018 58.927 9.66607 59.0793 9.51558C59.5289 9.06945 59.7151 8.43366 59.5708 7.8406C59.52 7.6349 59.423 7.41318 59.3045 7.2333C59.2306 7.12021 59.0543 6.93766 58.9555 6.87266C58.6011 6.63847 58.1549 6.58059 57.504 6.68299C57.4257 6.69546 57.3544 6.70792 57.3464 6.71059C57.3224 6.71772 57.3259 6.70169 57.3731 6.59394C57.5744 6.12823 58.0045 5.74087 58.7106 5.38735C59.0517 5.21638 59.3428 5.09706 59.9172 4.89314C60.358 4.73642 60.4835 4.68299 60.659 4.5788C61.0552 4.34283 61.2841 4.03383 61.3749 3.61531C61.3927 3.5325 61.3945 3.49688 61.3954 3.29474C61.3954 3.15316 61.3909 3.04363 61.3847 3.00445C61.3731 2.93766 61.1621 2.32057 61.1282 2.25289C61.0802 2.1585 60.9208 2.00267 60.7738 1.90739C60.5209 1.74265 60.1291 1.62956 59.7035 1.59839C59.6643 1.59572 59.6073 1.59127 59.5761 1.5886L59.5209 1.58326L59.5761 1.51113C59.6509 1.41496 59.8166 1.24755 59.9216 1.16473C60.016 1.08904 60.1701 0.986639 60.2538 0.942116C60.4221 0.853069 60.5209 0.678537 60.5067 0.495991C60.5013 0.4203 60.4533 0.278715 60.4114 0.21282C60.3544 0.124662 60.2493 0.0507545 60.138 0.0222588C60.0926 0.0106812 58.9279 0.0089035 50.1932 0.00979233C41.5931 0.00979233 40.2939 0.0115738 40.252 0.0231476ZM58.8709 0.924307C58.8709 0.927868 58.8424 0.96883 58.8077 1.01513C58.7231 1.12733 58.6456 1.24755 58.5717 1.37667C58.4666 1.561 58.3464 1.82725 58.3232 1.92787C58.2663 2.16652 58.4096 2.40427 58.6492 2.47195C58.6875 2.48263 58.789 2.48709 59.1425 2.49332C59.5975 2.50133 59.6821 2.50668 59.8762 2.53873C60.0205 2.56277 60.1229 2.59216 60.2111 2.63668C60.325 2.69278 60.3188 2.68388 60.407 2.9341L60.4853 3.15672L60.4898 3.26981C60.4969 3.46126 60.4595 3.56634 60.3428 3.68121C60.2315 3.79163 60.0828 3.86643 59.7257 3.99287C59.1469 4.19768 58.8878 4.29741 58.6037 4.42653C57.9599 4.71683 57.4835 5.0276 57.1122 5.40071C56.6616 5.85129 56.4087 6.36509 56.3464 6.9528C56.3286 7.11487 56.3286 7.31879 56.3464 7.38468C56.3891 7.54853 56.512 7.67408 56.6723 7.71594C56.7738 7.74354 56.8575 7.73375 57.317 7.64381C57.724 7.56456 57.8495 7.54764 58.0517 7.54764C58.1932 7.54764 58.236 7.55031 58.2832 7.56367C58.4167 7.60107 58.4969 7.66073 58.5681 7.77649C58.7231 8.0276 58.7462 8.33392 58.6314 8.58771C58.5681 8.72751 58.4381 8.88602 58.3232 8.96438C58.2939 8.98397 58.1594 9.06144 58.0249 9.13624C57.5361 9.40783 57.2547 9.59483 56.9475 9.84862C56.8139 9.95904 56.5067 10.2645 56.4096 10.3847C56.0169 10.8673 55.7792 11.3784 55.6785 11.9546C55.6216 12.2841 55.6144 12.7088 55.6607 13.0677C55.6714 13.1487 55.6794 13.1781 55.7097 13.2378C55.797 13.415 55.9795 13.5138 56.1728 13.4898C56.244 13.4809 56.3918 13.431 56.7079 13.3072C57.3642 13.0525 57.6287 12.9742 57.8477 12.9706L57.943 12.9697L58.0214 13.0231C58.1247 13.0926 58.244 13.2119 58.2796 13.2814C58.3197 13.358 58.3313 13.4158 58.325 13.5165C58.3143 13.7008 58.2173 13.9279 58.033 14.203C57.9154 14.3767 57.8228 14.4853 57.5085 14.813C57.065 15.2743 56.8664 15.5387 56.6937 15.8976C56.5619 16.171 56.488 16.4185 56.4426 16.7409C56.4194 16.9012 56.4203 17.3874 56.4426 17.5646C56.4924 17.9466 56.5859 18.3375 56.7168 18.7124C56.7801 18.8931 56.8335 18.967 56.9475 19.0356C57.0819 19.1166 57.2752 19.1131 57.415 19.0276C57.4933 18.9795 57.7204 18.8059 57.9314 18.6331C58.2173 18.398 58.3669 18.2832 58.5022 18.1923C58.707 18.0552 58.7916 18.0276 58.8718 18.0677C58.9733 18.1193 59.0721 18.2066 59.1371 18.3019C59.2903 18.5272 59.3232 18.8557 59.2226 19.1594C59.2048 19.2137 59.1282 19.3776 59.0312 19.5717C58.8495 19.935 58.7631 20.122 58.6803 20.3321C58.4915 20.8068 58.382 21.2404 58.3411 21.6741C58.3224 21.8673 58.3268 22.2876 58.3491 22.4488C58.4274 23.0134 58.6127 23.4978 58.9368 23.9849C59.057 24.1647 59.1318 24.2306 59.2618 24.2689C59.317 24.2849 59.4337 24.2876 59.4942 24.2734C59.5655 24.2573 59.6474 24.2101 59.7035 24.154C59.772 24.0846 59.829 23.9893 60.0134 23.6287C60.1683 23.3259 60.1968 23.2734 60.2707 23.1638C60.3891 22.9858 60.5325 22.8869 60.7329 22.8433C60.8388 22.821 61.0864 22.821 61.1683 22.8433C61.5334 22.9457 61.6946 23.3197 61.6037 23.8566C61.594 23.9172 61.5574 24.0917 61.5245 24.244C61.4907 24.3963 61.447 24.6037 61.4274 24.7053C61.2618 25.5387 61.2547 26.1932 61.4043 26.7854C61.537 27.3108 61.7907 27.7783 62.1594 28.1727C62.3526 28.3784 62.5815 28.5761 62.6866 28.626C62.8584 28.707 63.0481 28.6759 63.1906 28.5423C63.2787 28.4586 63.2956 28.4194 63.3678 28.1336C63.5387 27.4559 63.6732 27.0988 63.8308 26.9029C63.8985 26.8192 63.9279 26.8041 64.0543 26.7845C64.1923 26.764 64.3437 26.7631 64.4346 26.7818C64.6563 26.8272 64.8059 26.9964 64.9127 27.3241C64.9822 27.5334 65.0107 27.7035 65.0508 28.1389C65.081 28.4702 65.114 28.7667 65.1407 28.9492C65.2939 30.0027 65.5815 30.6198 66.1549 31.1247L66.2128 31.1754H61.8041H57.3963L56.5521 28.6972C56.0873 27.3348 55.6937 26.1914 55.6777 26.1576C55.6233 26.041 55.5102 25.951 55.3758 25.9172C55.3277 25.9056 54.7587 25.9038 50.1843 25.9056L45.0463 25.9083L44.9938 25.9288C44.8842 25.9697 44.7801 26.0614 44.7364 26.1549C44.724 26.1808 44.333 27.3197 43.8673 28.6857C43.4016 30.0516 43.0187 31.171 43.0178 31.1727C43.016 31.1745 40.1273 31.1745 36.5984 31.1736L30.1817 31.171L35.4301 16.0597C38.317 7.74799 40.6812 0.941225 40.6839 0.932322C40.6883 0.918074 41.1291 0.917183 49.7801 0.917183C54.7801 0.917183 58.8709 0.920746 58.8709 0.924307ZM68.8753 29.6848C68.9822 29.7124 69.0704 29.7845 69.1576 29.9145C69.2217 30.0107 69.2547 30.0757 69.3143 30.2226C69.3713 30.3633 69.4087 30.496 69.4755 30.789C69.5049 30.9163 69.537 31.0534 69.5468 31.0926C69.5574 31.1327 69.5655 31.1674 69.5655 31.1701C69.5655 31.1727 69.1995 31.1754 68.7516 31.1754C68.0178 31.1754 67.9377 31.1736 67.9323 31.1612C67.9234 31.138 67.9261 30.5726 67.9359 30.4675C67.9697 30.1042 68.0668 29.8994 68.252 29.8032C68.3241 29.7658 68.4844 29.7115 68.5948 29.6883C68.6892 29.6679 68.8059 29.6661 68.8753 29.6848Z" fill="#5F3918"/>
<path id="Vector_2" d="M50.1122 10.8228C50.0819 10.8299 50.0347 10.8459 50.0062 10.8593C49.935 10.8931 49.8415 10.984 49.8059 11.0534C49.7649 11.1362 47.2084 18.8967 47.2012 18.9635C47.1808 19.1398 47.2849 19.3313 47.4452 19.4123C47.5583 19.4693 47.3704 19.4657 50.211 19.4657C52.4897 19.4657 52.8094 19.4639 52.8593 19.4524C53.0775 19.4007 53.2288 19.2004 53.2137 18.9831C53.2101 18.9225 53.0632 18.4728 51.9207 15.0071C51.2039 12.8335 50.6198 11.0766 50.6046 11.0481C50.5726 10.9866 50.5022 10.9127 50.4434 10.878C50.3446 10.8201 50.2173 10.7988 50.1122 10.8228ZM51.2342 15.837L52.1264 18.5441L50.2128 18.5467C49.1594 18.5476 48.2956 18.5467 48.2938 18.5441C48.2894 18.5405 50.1736 12.8157 50.1995 12.7524C50.2084 12.732 50.2164 12.7516 50.2751 12.9297C50.3117 13.0401 50.7426 14.3482 51.2342 15.837Z" fill="#5F3918"/>
<path id="Vector_3" d="M77.4283 9.31077C76.5432 9.40694 75.7587 9.85307 75.2235 10.5654C74.9332 10.951 74.7284 11.423 74.6421 11.9012C74.5806 12.2467 74.5824 12.6821 74.6465 13.0365C74.667 13.1478 74.716 13.3393 74.7534 13.4506C74.9136 13.9332 75.1621 14.3348 75.5263 14.6972C75.7952 14.9662 76.0348 15.1371 76.3696 15.3028C76.9439 15.5859 77.5708 15.6857 78.2075 15.5957C79.049 15.4773 79.7899 15.0356 80.3046 14.3473C80.9448 13.4898 81.1042 12.3633 80.7275 11.3446C80.6759 11.2039 80.529 10.9065 80.4497 10.7809C80.1941 10.3767 79.8442 10.0276 79.4435 9.7756C79.0339 9.52003 78.5726 9.36064 78.0926 9.30988C77.9332 9.29296 77.5851 9.29385 77.4283 9.31077ZM78.0873 10.2271C78.4871 10.2885 78.8656 10.455 79.1826 10.7088C79.2244 10.7427 79.3063 10.8175 79.3651 10.8771C79.6421 11.154 79.8469 11.5129 79.9448 11.8931C80.065 12.3651 80.0339 12.8531 79.854 13.3028C79.6394 13.8362 79.2048 14.2885 78.6848 14.5191C78.2031 14.7329 77.6563 14.7738 77.1567 14.6331C76.6278 14.4853 76.1701 14.1487 75.8682 13.6866C75.7961 13.5761 75.6884 13.3615 75.6429 13.2378C75.4978 12.8424 75.4684 12.3954 75.5584 11.9724C75.6287 11.6429 75.8121 11.2752 76.0428 11.0009C76.4007 10.5744 76.9359 10.2858 77.4818 10.2235C77.5281 10.2182 77.5806 10.2119 77.5975 10.2101C77.667 10.2021 77.9982 10.2137 78.0873 10.2271Z" fill="#5F3918"/>
<path id="Vector_4" d="M79.4007 48.4871C77.5263 48.5833 76.0072 49.3571 74.8584 50.8014C74.0463 51.8228 73.5325 53.0988 73.35 54.5459C73.2859 55.0597 73.2743 55.2663 73.2743 55.9484C73.2743 56.5512 73.2779 56.6563 73.3144 57.0926C73.4969 59.2529 74.2298 60.8317 75.4907 61.7801C75.7409 61.9679 75.9475 62.0944 76.2529 62.2476C77.0134 62.6269 77.8807 62.8353 78.9466 62.894C79.3206 62.9154 79.9217 62.9047 80.2957 62.8709C81.708 62.7444 82.8558 62.2654 83.6919 61.4515C84.3883 60.7738 84.7623 59.9849 84.878 58.9492C84.8967 58.7756 84.9047 58.2734 84.8914 58.0053C84.8771 57.7088 84.8629 57.5209 84.854 57.5147C84.838 57.5049 83.1452 57.0677 83.1398 57.0721C83.1372 57.0757 83.1496 57.1852 83.1665 57.317C83.236 57.837 83.252 58.0187 83.2583 58.3446C83.2636 58.6358 83.2556 58.8085 83.2244 59.041C83.1194 59.8326 82.7952 60.5111 82.2681 61.0374C81.846 61.4604 81.3829 61.6901 80.7854 61.7738C80.7311 61.7809 80.61 61.7854 80.447 61.7854C80.1746 61.7854 80.0837 61.7765 79.8771 61.7311C78.5886 61.4461 77.8299 60.1398 77.5984 57.8094C77.5423 57.2493 77.5307 56.9439 77.5307 56.0686C77.5307 55.3063 77.5361 55.0988 77.5664 54.577C77.7347 51.715 78.3972 50.0855 79.5521 49.6883C79.7836 49.6091 80.025 49.5806 80.3259 49.5984C81.1603 49.6456 81.7373 49.9475 82.1238 50.5387C82.3901 50.9466 82.5405 51.463 82.6038 52.1906C82.6189 52.3651 82.6189 53.0071 82.6029 53.3508C82.5958 53.5013 82.5922 53.626 82.594 53.6278C82.5958 53.6296 82.9876 53.4524 83.464 53.2342L84.3295 52.837V52.7427C84.3295 52.6278 84.3153 52.3384 84.3028 52.1995C84.2405 51.5067 84.0935 50.9501 83.8397 50.4497C83.6679 50.1095 83.4907 49.8638 83.2342 49.6082C82.6055 48.9795 81.7026 48.6126 80.5272 48.5085C80.187 48.4791 79.7329 48.4702 79.4007 48.4871Z" fill="#5F3918"/>
<path id="Vector_5" d="M4.22708 48.7106C4.21996 48.7329 0.107757 62.6313 0.103304 62.6509L0.0979614 62.6714H0.889591H1.68211L2.12646 61.1576L2.5708 59.6438H4.6741H6.7765L6.7863 59.6723C6.79075 59.6883 6.97597 60.3624 7.1968 61.171C7.41764 61.9786 7.60019 62.6474 7.60286 62.6554C7.60731 62.6705 7.71239 62.6714 9.64204 62.6714C10.87 62.6714 11.6759 62.6679 11.6759 62.6634C11.6759 62.659 10.8023 59.5174 9.73465 55.6821C8.66697 51.8468 7.79342 48.707 7.79342 48.7044C7.79342 48.7017 6.99199 48.6999 6.01248 48.6999C4.59484 48.6999 4.23064 48.7026 4.22708 48.7106ZM5.5708 55.1247C6.01871 56.8094 6.38826 58.1986 6.39093 58.2119L6.39716 58.2369H4.68656C3.74533 58.2369 2.97597 58.2342 2.97597 58.2306C2.97597 58.2271 4.68567 52.2752 4.74444 52.0721C4.74712 52.0632 4.75068 52.057 4.75246 52.0588C4.75424 52.0606 5.122 53.4399 5.5708 55.1247Z" fill="#5F3918"/>
<path id="Vector_6" d="M14.3473 55.6857V62.6714H19.2449H24.1425V61.9724V61.2734H21.2707H18.3989V54.9866V48.6999H16.3731H14.3473V55.6857Z" fill="#5F3918"/>
<path id="Vector_7" d="M26.5735 55.6857V62.6714H31.4711H36.3687V61.9724V61.2734H33.4969H30.6251V54.9866V48.6999H28.5993H26.5735V55.6857Z" fill="#5F3918"/>
<path id="Vector_8" d="M38.8085 55.6857V62.6714H40.8344H42.8602V55.6857V48.6999H40.8344H38.8085V55.6857Z" fill="#5F3918"/>
<path id="Vector_9" d="M49.6411 48.7106C49.6296 48.7418 45.5138 62.6563 45.5138 62.6634C45.5138 62.6679 45.8406 62.6714 46.3045 62.6714H47.0953L47.5396 61.1576L47.9849 59.6438H50.0881C52.0828 59.6438 52.1914 59.6447 52.1959 59.659C52.1986 59.6679 52.3793 60.3277 52.5975 61.1264C52.8157 61.9243 53 62.5993 53.008 62.6242L53.0214 62.6714H55.0552C56.1745 62.6714 57.0899 62.6687 57.0899 62.6652C57.0899 62.6616 56.2155 59.5183 55.1469 55.6794L53.2039 48.6999H51.4247C50.0089 48.6999 49.6438 48.7026 49.6411 48.7106ZM50.9991 55.1799C51.4443 56.8566 51.8094 58.2297 51.8094 58.2324C51.8094 58.2351 51.0401 58.2369 50.0997 58.2369C49.1594 58.2369 48.39 58.2333 48.39 58.2289C48.39 58.2226 50.1434 52.1184 50.1594 52.0703C50.1638 52.0561 50.1674 52.0606 50.1763 52.0926C50.1825 52.1149 50.553 53.504 50.9991 55.1799Z" fill="#5F3918"/>
<path id="Vector_10" d="M59.6812 55.6857V62.6714H60.3624H61.0436L61.0454 58.2573L61.0481 53.8433L63.9599 58.2573L66.8718 62.6714H68.4239H69.9751V55.6857V48.6999H69.2939H68.6126V53.4746V58.2502L65.4292 53.4746L62.2458 48.6999H60.9635H59.6812V55.6857Z" fill="#5F3918"/>
<path id="Vector_11" d="M87.9982 55.6857V62.6714H92.9537H97.9092V61.9724V61.2734H94.9795H92.0499V58.504V55.7346H94.1558H96.2618L96.26 55.0329L96.2574 54.3321L94.1541 54.3295L92.0499 54.3277V52.2173V50.1069H94.5521H97.0543V49.4034V48.6999H92.5263H87.9982V55.6857Z" fill="#5F3918"/>
<path id="Vector_12" d="M17.3794 68.1665C16.7249 68.2191 16.1986 68.3571 15.6786 68.6109C14.8282 69.0276 14.0944 69.7676 13.6786 70.6278C13.4417 71.1184 13.3028 71.634 13.2369 72.2618C13.2173 72.4497 13.2146 73.1398 13.2324 73.3393C13.3348 74.4737 13.7124 75.3517 14.4007 76.0588C15.0686 76.7444 15.8629 77.1158 16.903 77.2271C17.082 77.2458 17.5753 77.2538 17.7979 77.2404C18.6999 77.187 19.5094 76.9662 20.2494 76.5699L20.3669 76.5067V74.5094V72.5111H18.8887H17.4105V72.9786V73.4461H18.3767H19.3429V74.6794V75.9127L19.2966 75.9395C19.2191 75.9831 19 76.0766 18.8611 76.1247C18.1826 76.3589 17.3126 76.3927 16.5958 76.2137C15.838 76.0249 15.2155 75.5628 14.8059 74.8842C14.5227 74.4159 14.3527 73.8281 14.3028 73.1478C14.2912 72.9866 14.2912 72.5218 14.3028 72.3678C14.3785 71.3865 14.724 70.6037 15.3544 69.9858C15.8763 69.4755 16.4844 69.1915 17.2414 69.1051C17.5165 69.073 17.9653 69.0793 18.3117 69.1184C18.9617 69.1932 19.5619 69.3856 20.0677 69.683C20.1309 69.7204 20.1844 69.7507 20.1861 69.7507C20.187 69.7507 20.1888 69.4951 20.1888 69.1825V68.6144L20.1425 68.5939C19.602 68.3589 19.1167 68.2413 18.4257 68.1781C18.244 68.1621 17.5352 68.1532 17.3794 68.1665Z" fill="#5F3918"/>
<path id="Vector_13" d="M82.0054 68.1656C81.122 68.2333 80.3758 68.4995 79.7213 68.9795C79.4052 69.2119 79.065 69.5467 78.8246 69.8629C78.3375 70.5049 78.0454 71.2671 77.9457 72.1594C77.9145 72.4345 77.9065 72.6349 77.9119 72.9786C77.9181 73.3909 77.9439 73.6554 78.0116 73.9938C78.1683 74.7827 78.4862 75.4292 78.9947 75.9964C79.667 76.7462 80.5708 77.1638 81.683 77.2395C81.8584 77.2511 82.2734 77.2511 82.4711 77.2395C83.2226 77.1941 83.8246 77.0508 84.3767 76.7863L84.472 76.7409V76.2422C84.472 75.9679 84.4702 75.7435 84.4684 75.7435C84.4666 75.7435 84.4337 75.7613 84.3963 75.7836C83.9644 76.0392 83.3927 76.2226 82.8157 76.2903C82.4942 76.3286 82.0535 76.3375 81.8006 76.3099C81.0232 76.2271 80.4328 75.9501 79.9252 75.431C79.4016 74.8949 79.106 74.2208 79.008 73.3393C78.9893 73.1656 78.9813 72.6429 78.9947 72.4435C79.0552 71.5592 79.3099 70.854 79.7828 70.2636C79.8736 70.1505 80.0686 69.9492 80.1844 69.8495C80.7765 69.3393 81.5147 69.0828 82.3901 69.0828C83.0971 69.0828 83.7943 69.2484 84.3722 69.5556L84.472 69.6091V69.0614V68.5138L84.4301 68.4951C84.3633 68.4657 84.1826 68.4016 84.0659 68.366C83.7845 68.2796 83.4372 68.2164 83.0383 68.1781C82.8665 68.1621 82.1674 68.1532 82.0054 68.1656Z" fill="#5F3918"/>
<path id="Vector_14" d="M63.2787 72.7026V77.106H65.5584H67.838V76.6385V76.171H66.0704H64.3028V72.2351V68.2992H63.7908H63.2787V72.7026Z" fill="#5F3918"/>
<path id="Vector_15" d="M71.0793 72.7026V77.106H73.3633H75.6474V76.6385V76.171H73.8798H72.1122V72.2351V68.2992H71.5958H71.0793V72.7026Z" fill="#5F3918"/>
<path id="Vector_16" d="M32.878 70.6741C31.8344 70.7088 31.0143 71.1042 30.4631 71.8406C30.1701 72.2324 29.9786 72.7124 29.8905 73.276C29.813 73.7738 29.8175 74.3624 29.9047 74.8308C30.0214 75.4622 30.2956 75.9982 30.7195 76.4239C31.2102 76.9163 31.8112 77.1781 32.594 77.2404C32.7578 77.2538 33.1986 77.2458 33.35 77.2262C33.7703 77.1745 34.0962 77.0784 34.4221 76.9127C34.6732 76.7836 34.8896 76.626 35.1006 76.4158C35.7168 75.8032 36.0214 74.9795 36.0214 73.9314C36.0214 73.0276 35.8086 72.2832 35.3945 71.7329C34.9528 71.146 34.342 70.805 33.553 70.7035C33.4123 70.6857 33.106 70.667 33.0071 70.6696C32.9778 70.6705 32.9199 70.6723 32.878 70.6741ZM33.3054 71.5361C33.6207 71.5797 33.9172 71.6901 34.1425 71.8495C34.252 71.927 34.4586 72.1336 34.5361 72.244C34.8469 72.6839 34.9902 73.2289 34.9902 73.9715C34.9902 74.2573 34.9769 74.4408 34.9386 74.6661C34.8148 75.4007 34.4657 75.9314 33.9332 76.1968C33.6794 76.3232 33.4435 76.3829 33.114 76.4025C32.6225 76.4319 32.1737 76.3241 31.8184 76.0926C31.3179 75.7658 30.9965 75.2164 30.8976 74.5191C30.8647 74.2885 30.8549 73.9065 30.8753 73.6625C30.9074 73.2645 30.9965 72.9181 31.1407 72.6224C31.4622 71.9653 32.0071 71.5922 32.7444 71.5227C32.862 71.512 33.1826 71.5191 33.3054 71.5361Z" fill="#5F3918"/>
<path id="Vector_17" d="M51.5468 70.6768C51.0169 70.7097 50.5583 70.8798 50.1844 71.1817C49.9893 71.3393 49.7899 71.5628 49.6349 71.7996C49.5904 71.8673 49.5477 71.9234 49.5414 71.9234C49.5316 71.9234 49.5299 71.821 49.5299 71.3713V70.8192H49.0267H48.5236V75.4096V80H49.0267H49.5299V78.0988C49.5299 76.4604 49.5316 76.1977 49.5423 76.1977C49.5494 76.1977 49.5824 76.2369 49.6153 76.2841C49.7124 76.4265 49.8023 76.5334 49.9208 76.6518C50.244 76.9733 50.6136 77.1558 51.0837 77.2271C51.1345 77.2351 51.2672 77.2431 51.3909 77.2458C52.4105 77.268 53.1933 76.8655 53.7266 76.0454C54.0294 75.5788 54.2039 75.0445 54.2814 74.3455C54.301 74.171 54.309 73.5939 54.2948 73.3989C54.2378 72.6242 54.0187 72.0053 53.6296 71.52C53.2823 71.0864 52.8175 70.8139 52.2592 70.7168C52.0374 70.6785 51.7667 70.6634 51.5468 70.6768ZM51.667 71.5236C52.1933 71.5717 52.6038 71.8166 52.9021 72.2618C53.1096 72.5717 53.2342 72.9858 53.2707 73.4862C53.2832 73.6634 53.2761 74.0668 53.2565 74.2565C53.2102 74.7106 53.1158 75.0632 52.9546 75.3829C52.8353 75.618 52.7222 75.7756 52.5521 75.9394C52.2556 76.2253 51.9083 76.3722 51.4577 76.4025C51.2048 76.4194 50.9662 76.3909 50.7364 76.3161C50.1594 76.1282 49.6973 75.5895 49.5699 74.9573C49.5316 74.7649 49.5281 74.6705 49.5316 74.0071C49.5352 73.4221 49.537 73.3811 49.5557 73.2636C49.5966 73.0045 49.6616 72.7907 49.7614 72.5868C49.9582 72.1843 50.2618 71.8718 50.6269 71.6963C50.9243 71.553 51.3046 71.4898 51.667 71.5236Z" fill="#5F3918"/>
<path id="Vector_18" d="M26.6536 70.7186C26.5779 70.7284 26.4105 70.7703 26.333 70.7988C25.8451 70.9804 25.4461 71.4221 25.2369 72.0125C25.2155 72.073 25.1995 72.1069 25.1897 72.1086C25.1763 72.1113 25.1754 72.0552 25.1754 71.4657V70.8192H24.6723H24.1692V73.9626V77.106H24.6723H25.1754V75.4069C25.1754 73.5361 25.1763 73.5004 25.2342 73.179C25.3517 72.5254 25.6874 71.9964 26.1273 71.7694C26.3277 71.6652 26.4586 71.6349 26.7026 71.6349C26.992 71.6349 27.2235 71.6883 27.3882 71.7934C27.415 71.8112 27.4399 71.8255 27.4417 71.8255C27.4443 71.8255 27.4452 71.5922 27.4443 71.3072L27.4417 70.789L27.3882 70.772C27.26 70.732 27.1576 70.7195 26.9163 70.7168C26.789 70.715 26.6705 70.7159 26.6536 70.7186Z" fill="#5F3918"/>
<path id="Vector_19" d="M39.39 72.8869C39.3927 75.1069 39.3909 75.0142 39.4363 75.3188C39.6296 76.6064 40.3562 77.2484 41.6233 77.2484C41.8825 77.2484 42.0472 77.2289 42.2707 77.1719C42.7907 77.0392 43.2155 76.7097 43.5192 76.2004C43.5494 76.1496 43.5797 76.1086 43.5868 76.1086C43.5975 76.1086 43.5993 76.1825 43.5993 76.6073V77.106H44.1024H44.6055V73.9626V70.8192H44.1024H43.6002L43.5966 72.7578C43.594 74.5316 43.5931 74.7061 43.5788 74.7996C43.52 75.1959 43.4025 75.4951 43.2004 75.7676C43.1202 75.8736 42.9448 76.0463 42.8424 76.1193C42.6411 76.2618 42.4105 76.3535 42.1585 76.39C42.0294 76.4096 41.7738 76.4096 41.6403 76.39C41.1496 76.3206 40.8139 76.0784 40.6082 75.6447C40.5076 75.4328 40.4461 75.2021 40.4052 74.8842C40.3918 74.7801 40.39 74.577 40.3874 72.7934L40.3838 70.8192H39.8851H39.3865L39.39 72.8869Z" fill="#5F3918"/>
</g>
</g>
<defs>
<clipPath id="clip0_104_306">
<rect width="97.8183" height="80" fill="white" transform="translate(0.0908203)"/>
</clipPath>
</defs>
</svg>
