<svg width="20" height="20" viewBox="0 0 20 20" fill="none" xmlns="http://www.w3.org/2000/svg">
<path d="M13.2811 3.43738C14.1506 3.43998 14.9838 3.78654 15.5986 4.40138C16.2135 5.01621 16.56 5.84936 16.5626 6.71887V13.2811C16.56 14.1506 16.2135 14.9838 15.5986 15.5986C14.9838 16.2135 14.1506 16.56 13.2811 16.5626H6.71887C5.84936 16.56 5.01621 16.2135 4.40138 15.5986C3.78654 14.9838 3.43998 14.1506 3.43738 13.2811V6.71887C3.43998 5.84936 3.78654 5.01621 4.40138 4.40138C5.01621 3.78654 5.84936 3.43998 6.71887 3.43738H13.2811ZM13.2811 2.125H6.71887C4.19219 2.125 2.125 4.19219 2.125 6.71887V13.2811C2.125 15.8078 4.19219 17.875 6.71887 17.875H13.2811C15.8078 17.875 17.875 15.8078 17.875 13.2811V6.71887C17.875 4.19219 15.8078 2.125 13.2811 2.125Z" fill="#5F3918"/>
<path d="M14.2656 6.71887C14.0709 6.71887 13.8806 6.66114 13.7187 6.55298C13.5569 6.44481 13.4307 6.29107 13.3562 6.1112C13.2817 5.93133 13.2622 5.73341 13.3002 5.54246C13.3381 5.35151 13.4319 5.17611 13.5696 5.03844C13.7072 4.90077 13.8826 4.80702 14.0736 4.76904C14.2645 4.73105 14.4625 4.75055 14.6423 4.82505C14.8222 4.89956 14.9759 5.02573 15.0841 5.18761C15.1923 5.34949 15.25 5.53981 15.25 5.7345C15.2503 5.86385 15.225 5.99197 15.1756 6.11153C15.1263 6.23109 15.0538 6.33971 14.9623 6.43118C14.8708 6.52264 14.7622 6.59514 14.6427 6.64451C14.5231 6.69388 14.395 6.71915 14.2656 6.71887Z" fill="#5F3918"/>
<path d="M10 7.37488C10.5192 7.37488 11.0267 7.52884 11.4584 7.8173C11.8901 8.10575 12.2266 8.51573 12.4253 8.99541C12.624 9.47509 12.676 10.0029 12.5747 10.5121C12.4734 11.0214 12.2234 11.4891 11.8562 11.8562C11.4891 12.2234 11.0214 12.4734 10.5121 12.5747C10.0029 12.676 9.47509 12.624 8.99541 12.4253C8.51574 12.2266 8.10575 11.8901 7.8173 11.4584C7.52885 11.0267 7.37488 10.5192 7.37488 10C7.37563 9.304 7.65244 8.63673 8.14459 8.14458C8.63673 7.65244 9.30401 7.37563 10 7.37488ZM10 6.0625C9.22124 6.0625 8.45996 6.29343 7.81244 6.72609C7.16493 7.15875 6.66025 7.7737 6.36223 8.49318C6.06421 9.21267 5.98623 10.0044 6.13816 10.7682C6.29009 11.532 6.6651 12.2336 7.21577 12.7842C7.76644 13.3349 8.46803 13.7099 9.23183 13.8618C9.99563 14.0138 10.7873 13.9358 11.5068 13.6378C12.2263 13.3398 12.8413 12.8351 13.2739 12.1876C13.7066 11.54 13.9375 10.7788 13.9375 10C13.9375 8.95571 13.5227 7.95419 12.7842 7.21577C12.0458 6.47734 11.0443 6.0625 10 6.0625Z" fill="#5F3918"/>
</svg>
