<svg xmlns="http://www.w3.org/2000/svg" width="20" height="20" fill="none"><path fill="#5F3918" d="M13.281 3.437a3.291 3.291 0 0 1 3.282 3.282v6.562a3.291 3.291 0 0 1-3.282 3.282H6.72a3.291 3.291 0 0 1-3.282-3.282V6.72A3.291 3.291 0 0 1 6.72 3.437h6.562Zm0-1.312H6.72a4.607 4.607 0 0 0-4.594 4.594v6.562a4.607 4.607 0 0 0 4.594 4.594h6.562a4.607 4.607 0 0 0 4.594-4.594V6.72a4.607 4.607 0 0 0-4.594-4.594Z"/><path fill="#5F3918" d="M14.266 6.719a.984.984 0 1 1 0-1.97.984.984 0 0 1 0 1.97ZM10 7.375a2.625 2.625 0 1 1 0 5.25 2.625 2.625 0 0 1 0-5.25Zm0-1.313a3.938 3.938 0 1 0 0 7.876 3.938 3.938 0 0 0 0-7.876Z"/></svg>