<svg xmlns="http://www.w3.org/2000/svg" width="24" height="24" fill="none"><path fill="#E9BFAB" fill-rule="evenodd" d="M4.011 21.668h15.978a2.26 2.26 0 0 0 2.25-2.25 2.25 2.25 0 0 0-.27-1.067L13.982 3.515c-.85-1.577-3.112-1.577-3.962 0L2.03 18.351a2.25 2.25 0 0 0-.269 1.067 2.26 2.26 0 0 0 2.25 2.25Zm0-1.5a.754.754 0 0 1-.66-1.106l7.988-14.835a.75.75 0 0 1 1.322 0l7.988 14.835a.75.75 0 0 1-.66 1.106H4.01Z" clip-rule="evenodd"/><path fill="#E9BFAB" fill-rule="evenodd" d="M10.982 9.186v.008l.269 5.719a.75.75 0 0 0 1.498 0l.269-5.716v-.002A1.025 1.025 0 0 0 12 8.13h-.01a1.023 1.023 0 0 0-1.008 1.056Z" clip-rule="evenodd"/><path fill="#E9BFAB" d="M12 18.621a.942.942 0 0 1-.938-.937c0-.515.424-.938.938-.938s.938.423.938.938a.942.942 0 0 1-.938.937Z"/></svg>