<svg width="24" height="24" viewBox="0 0 24 24" fill="none" xmlns="http://www.w3.org/2000/svg">
<path fill-rule="evenodd" clip-rule="evenodd" d="M4.01098 21.6679H19.989C21.2231 21.6679 22.2386 20.652 22.2386 19.4179C22.2386 19.0456 22.1462 18.6792 21.9697 18.3514L13.9811 3.51525C13.1314 1.93763 10.8686 1.93763 10.0189 3.51525L2.03023 18.3514C1.85375 18.6792 1.76137 19.0456 1.76135 19.4179C1.76135 20.652 2.77685 21.6679 4.01098 21.6679ZM4.01098 20.1679C3.59998 20.1679 3.26135 19.8292 3.26135 19.4179C3.26136 19.2938 3.29215 19.1716 3.35098 19.0624L11.3392 4.22662C11.6227 3.7005 12.3772 3.7005 12.6607 4.22662L20.649 19.0624C20.7078 19.1716 20.7386 19.2938 20.7386 19.4179C20.7386 19.8292 20.4 20.1679 19.9886 20.1679H4.01098Z" fill="#E9BFAB"/>
<path fill-rule="evenodd" clip-rule="evenodd" d="M10.9815 9.18638V9.19388L11.2508 14.9126C11.2594 15.1055 11.3421 15.2877 11.4817 15.4212C11.6213 15.5546 11.8069 15.6291 12 15.6291C12.1931 15.6291 12.3788 15.5546 12.5184 15.4212C12.6579 15.2877 12.7406 15.1055 12.7493 14.9126L13.0178 9.1965V9.19538C13.0234 9.05798 13.0012 8.92086 12.9527 8.79221C12.9041 8.66356 12.8301 8.54601 12.7351 8.44658C12.6401 8.34714 12.5261 8.26787 12.3998 8.21348C12.2735 8.15908 12.1375 8.1307 12 8.13H11.9903C11.8543 8.13193 11.7202 8.16091 11.5956 8.21525C11.4709 8.26959 11.3584 8.3482 11.2645 8.4465C11.1706 8.5448 11.0972 8.66082 11.0486 8.78779C11 8.91476 10.9772 9.0505 10.9815 9.18638Z" fill="#E9BFAB"/>
<path d="M12 18.6211C11.4857 18.6211 11.0625 18.1979 11.0625 17.6836C11.0625 17.1693 11.4857 16.7461 12 16.7461C12.5143 16.7461 12.9375 17.1693 12.9375 17.6836C12.9375 18.1979 12.5143 18.6211 12 18.6211Z" fill="#E9BFAB"/>
</svg>
